<svg xmlns="http://www.w3.org/2000/svg" width="24" height="24" viewBox="0 -5 14 24">
    <path fill="none" d="M0 0h24v24H0z"/>
    <path fill="#1a4adb" d="M12.416 0H1.235A1.235 1.235 0 0 0 0 1.235v11.181a1.235 1.235 0 0 0 1.235 1.234h11.181a1.235 1.235 0 0 0 1.235-1.235V1.235A1.235 1.235 0 0 0 12.416 0zM4.224 11.787a.359.359 0 0 1-.359.359h-1.53a.359.359 0 0 1-.359-.359V5.375a.359.359 0 0 1 .359-.359h1.53a.359.359 0 0 1 .359.359zM3.1 4.411a1.453 1.453 0 1 1 1.453-1.453A1.453 1.453 0 0 1 3.1 4.411zm9.118 7.4a.33.33 0 0 1-.33.33h-1.642a.33.33 0 0 1-.33-.33V8.808c0-.449.132-1.966-1.173-1.966-1.012 0-1.217 1.039-1.258 1.5v3.469a.33.33 0 0 1-.33.33H5.567a.33.33 0 0 1-.33-.33V5.346a.33.33 0 0 1 .33-.33h1.588a.33.33 0 0 1 .33.33V5.9a2.253 2.253 0 0 1 2.119-1c2.628 0 2.613 2.455 2.613 3.8v3.1z"/>
</svg>
