<svg xmlns="http://www.w3.org/2000/svg" width="24" height="24" viewBox="0 0 24 24">
    <g>
        <path fill="none" d="M0 0h24v24H0z"/>
    </g>
    <g>
        <g>
            <path fill="#1a4adb" d="M1.749 14.495h14.99v1.5H1.749zm.862-3.035l.637-1.109.637 1.109.975-.56-.637-1.112H5.5V8.664H4.223l.637-1.1L3.886 7l-.638 1.1L2.611 7l-.974.562.637 1.1H1v1.126h1.274L1.637 10.9zm5.022-.56l.974.562.637-1.109.637 1.109.974-.562-.637-1.109h1.274V8.664h-1.273l.637-1.1L9.881 7l-.637 1.1L8.607 7l-.974.562.637 1.1H7v1.126h1.27zm9.856-2.233h-1.275l.637-1.1L15.877 7l-.637 1.1L14.6 7l-.974.562.637 1.1h-1.271v1.126h1.274l-.637 1.112.974.562.637-1.109.637 1.109.974-.562-.637-1.109h1.274z" transform="translate(2.756 1.503) translate(1 7) translate(-1 -7)"/>
        </g>
    </g>
</svg>
