<svg xmlns="http://www.w3.org/2000/svg" width="24" height="24" viewBox="0 0 24 24">
    <defs>
        <style>
            .cls-1{fill:none}
        </style>
    </defs>
    <g id="Group_9" transform="translate(82 -1552)">
        <g id="work_outline-24px" transform="translate(-79.586 1554.414)">
            <path id="Path_360" d="M0 0h19.172v19.172H0z" class="cls-1"/>
            <path id="Path_361" fill="#fff" d="M11.586 5.2V3.6h-3.2v1.6zM3.6 7.592v7.189a.8.8 0 0 0 .8.8h11.18a.8.8 0 0 0 .8-.8V7.592a.8.8 0 0 0-.8-.8H4.4a.8.8 0 0 0-.8.8zM16.379 5.2a1.592 1.592 0 0 1 1.6 1.6v8.78a1.592 1.592 0 0 1-1.6 1.6H3.6a1.592 1.592 0 0 1-1.6-1.6l.008-8.787A1.585 1.585 0 0 1 3.6 5.2h3.2V3.6A1.592 1.592 0 0 1 8.391 2h3.2a1.592 1.592 0 0 1 1.6 1.6v1.6z" transform="translate(-.402 -.402)"/>
        </g>
        <path id="Rectangle_561" d="M0 0H24V24H0z" class="cls-1" transform="translate(-82 1552)"/>
    </g>
</svg>
