<svg xmlns="http://www.w3.org/2000/svg" width="24" height="24" viewBox="0 0 24 24">
    <path fill="none" d="M0 0h24v24H0z"/>
    <path fill="#1a4adb" d="M13.776 11.137l-1.685-.192a1.321 1.321 0 0 0-1.091.378l-1.218 1.22A9.981 9.981 0 0 1 5.41 8.171l1.228-1.227a1.321 1.321 0 0 0 .378-1.088l-.193-1.672A1.328 1.328 0 0 0 5.5 3.01H4.356a1.317 1.317 0 0 0-1.327 1.373A11.272 11.272 0 0 0 13.57 14.925a1.317 1.317 0 0 0 1.374-1.325v-1.15a1.315 1.315 0 0 0-1.168-1.313z" transform="translate(3.023 3.023)"/>
</svg>
