<svg xmlns="http://www.w3.org/2000/svg" width="24" height="24" viewBox="0 0 24 24">
    <defs>
        <style>
            .cls-3{fill:none}
        </style>
    </defs>
    <g id="Group_110" transform="translate(-4736 733)">
        <g id="Group_110-2" transform="translate(1 2)">
            <g id="Ellipse_47" fill="none" stroke="#fff" stroke-width="1.5px" transform="translate(4739 -731)">
                <circle cx="8" cy="8" r="8" stroke="none"/>
                <circle cx="8" cy="8" r="7.25" class="cls-3"/>
            </g>
            <path id="Path_540" fill="#fff" d="M1.716-3.476a.66.66 0 0 1 .184-.478.631.631 0 0 1 .473-.192 2.284 2.284 0 0 0 .814-.138 1.207 1.207 0 0 0 .578-.445 1.4 1.4 0 0 0 .214-.814A1.205 1.205 0 0 0 3.8-6.2a1.279 1.279 0 0 0-.495-.451A1.5 1.5 0 0 0 2.6-6.82a1.513 1.513 0 0 0-.577.11 1.8 1.8 0 0 0-.49.3 1.094 1.094 0 0 1-.424.226.556.556 0 0 1-.5-.115.648.648 0 0 1-.286-.473.628.628 0 0 1 .209-.506 2.808 2.808 0 0 1 .929-.633A2.894 2.894 0 0 1 2.6-8.14a2.725 2.725 0 0 1 1.37.346 2.692 2.692 0 0 1 .974.93 2.446 2.446 0 0 1 .356 1.32 2.669 2.669 0 0 1-.165.974 2.081 2.081 0 0 1-.468.726 2.362 2.362 0 0 1-.7.484 3.465 3.465 0 0 1-.875.259.36.36 0 0 0-.038.022.037.037 0 0 0-.016.033v.407a.66.66 0 0 1-.187.478.631.631 0 0 1-.473.192.631.631 0 0 1-.478-.192.66.66 0 0 1-.187-.478zM2.321 0a.662.662 0 0 1-.489-.17.662.662 0 0 1-.171-.49v-.187a.662.662 0 0 1 .171-.49.662.662 0 0 1 .489-.17h.143a.662.662 0 0 1 .49.17.662.662 0 0 1 .171.49v.187a.662.662 0 0 1-.171.489.662.662 0 0 1-.49.17z" transform="translate(4744 -719)"/>
        </g>
        <path id="Rectangle_584" d="M0 0H24V24H0z" class="cls-3" transform="translate(4736 -733)"/>
    </g>
</svg>
