<svg xmlns="http://www.w3.org/2000/svg" xmlns:xlink="http://www.w3.org/1999/xlink" width="451.327" height="485.183" viewBox="0 0 451.327 485.183">
    <defs>
        <linearGradient id="linear-gradient" x1=".923" x2=".201" y1="-.154" y2=".964" gradientUnits="objectBoundingBox">
            <stop offset="0" stop-color="#e4f2ff"/>
            <stop offset=".198" stop-color="#dbeafd" stop-opacity=".784"/>
            <stop offset=".595" stop-color="#cbdbfb" stop-opacity=".365"/>
            <stop offset=".871" stop-color="#c0d1fa" stop-opacity=".102"/>
            <stop offset=".999" stop-color="#bdcefa" stop-opacity="0"/>
        </linearGradient>
        <linearGradient id="linear-gradient-2" x1=".356" x2=".613" y1=".077" y2=".832" xlink:href="#linear-gradient"/>
        <linearGradient id="linear-gradient-3" x1=".522" x2=".494" y1="-.316" y2=".715" xlink:href="#linear-gradient"/>
        <linearGradient id="linear-gradient-4" x1=".673" x2=".424" y1="-.424" y2=".907" xlink:href="#linear-gradient"/>
        <linearGradient id="linear-gradient-5" x1="1.266" x2="-.389" y1=".082" y2=".986" gradientUnits="objectBoundingBox">
            <stop offset="0" stop-color="#e4f2ff"/>
            <stop offset=".056" stop-color="#e1effe"/>
            <stop offset=".648" stop-color="#c6d7fb"/>
            <stop offset=".999" stop-color="#bdcefa"/>
        </linearGradient>
        <linearGradient id="linear-gradient-6" x1="2.615" x2="-.058" y1="-.364" y2=".728" xlink:href="#linear-gradient-5"/>
        <linearGradient id="linear-gradient-7" x1=".999" x2="-1.053" y1="-.079" y2="2.34" xlink:href="#linear-gradient-5"/>
        <linearGradient id="linear-gradient-8" x1="1.928" x2=".204" y1="-1.071" y2=".827" xlink:href="#linear-gradient-5"/>
        <linearGradient id="linear-gradient-9" x1=".949" x2="-.975" y1=".026" y2="2.102" xlink:href="#linear-gradient-5"/>
        <linearGradient id="linear-gradient-10" x1="2.523" x2=".374" y1="-1.053" y2=".597" xlink:href="#linear-gradient-5"/>
        <linearGradient id="linear-gradient-11" x1="1.086" x2="-.069" y1="-.235" y2="1.234" xlink:href="#linear-gradient-5"/>
        <linearGradient id="linear-gradient-12" x1="1.628" x2=".947" y1=".756" y2=".602" xlink:href="#linear-gradient-5"/>
        <linearGradient id="linear-gradient-13" x1=".963" x2="-2.037" y1=".039" y2="3.025" xlink:href="#linear-gradient-5"/>
        <linearGradient id="linear-gradient-14" x1="1.973" x2=".197" y1="1.077" y2=".381" xlink:href="#linear-gradient-5"/>
        <linearGradient id="linear-gradient-15" x1="1.367" x2=".012" y1=".439" y2=".514" xlink:href="#linear-gradient-5"/>
        <linearGradient id="linear-gradient-16" x1="1.008" x2=".114" y1=".892" y2=".08" xlink:href="#linear-gradient-5"/>
        <linearGradient id="linear-gradient-17" x1="-.304" x2="1.201" y1="1.453" y2="-.33" gradientUnits="objectBoundingBox">
            <stop offset="0" stop-color="#0f123b"/>
            <stop offset=".074" stop-color="#131653"/>
            <stop offset=".208" stop-color="#1b1e79"/>
            <stop offset=".347" stop-color="#212499"/>
            <stop offset=".492" stop-color="#2629b1"/>
            <stop offset=".643" stop-color="#292dc3"/>
            <stop offset=".805" stop-color="#2b2fcd"/>
            <stop offset=".999" stop-color="#2c30d1"/>
        </linearGradient>
        <linearGradient id="linear-gradient-18" x1=".908" x2="-.09" y1="-.062" y2=".803" xlink:href="#linear-gradient-5"/>
        <linearGradient id="linear-gradient-19" x1="981.921" x2="-980.66" y1="-2441.985" y2="2442.077" xlink:href="#linear-gradient-5"/>
        <linearGradient id="linear-gradient-20" x1="1.153" x2=".218" y1=".291" y2=".617" xlink:href="#linear-gradient-5"/>
        <linearGradient id="linear-gradient-21" x2="1" y1=".5" y2=".5" gradientUnits="objectBoundingBox">
            <stop offset="0" stop-color="#fcfdff" stop-opacity="0"/>
            <stop offset=".121" stop-color="#fcfad7" stop-opacity=".157"/>
            <stop offset=".366" stop-color="#fdf58b" stop-opacity=".451"/>
            <stop offset=".585" stop-color="#fef14f" stop-opacity=".686"/>
            <stop offset=".77" stop-color="#feee24" stop-opacity=".859"/>
            <stop offset=".914" stop-color="#feec09" stop-opacity=".961"/>
            <stop offset=".999" stop-color="#ffec00"/>
        </linearGradient>
        <linearGradient id="linear-gradient-24" x1="-6.078" x2="3.034" y1="3.189" y2="-.536" gradientUnits="objectBoundingBox">
            <stop offset="0" stop-color="#fcfdff" stop-opacity="0"/>
            <stop offset=".121" stop-color="#fcdbe6" stop-opacity=".157"/>
            <stop offset=".366" stop-color="#fd9cb8" stop-opacity=".451"/>
            <stop offset=".585" stop-color="#fe6993" stop-opacity=".686"/>
            <stop offset=".77" stop-color="#fe4579" stop-opacity=".859"/>
            <stop offset=".914" stop-color="#fe2f69" stop-opacity=".961"/>
            <stop offset=".999" stop-color="#ff2763"/>
        </linearGradient>
        <linearGradient id="linear-gradient-25" x1="-6.854" x2="2.258" y1="3.506" y2="-.219" xlink:href="#linear-gradient-24"/>
        <linearGradient id="linear-gradient-26" x1="-7.63" x2="1.482" y1="3.823" y2=".098" xlink:href="#linear-gradient-24"/>
        <linearGradient id="linear-gradient-27" x1="-.093" x2="1.668" y1=".982" y2="-.449" xlink:href="#linear-gradient-24"/>
        <linearGradient id="linear-gradient-28" x1="-.243" x2="1.518" y1="1.104" y2="-.327" xlink:href="#linear-gradient-24"/>
        <linearGradient id="linear-gradient-29" x1="-.393" x2="1.368" y1="1.225" y2="-.206" xlink:href="#linear-gradient-24"/>
        <linearGradient id="linear-gradient-30" x1="7.667" x2="-2.64" y1="-2.731" y2="1.916" xlink:href="#linear-gradient-21"/>
        <linearGradient id="linear-gradient-31" x1="8.474" x2="-1.832" y1="-3.096" y2="1.552" xlink:href="#linear-gradient-21"/>
        <linearGradient id="linear-gradient-32" x1="9.282" x2="-1.024" y1="-3.46" y2="1.187" xlink:href="#linear-gradient-21"/>
        <linearGradient id="linear-gradient-33" x1="1.227" x2="-.765" y1="-.152" y2="1.634" xlink:href="#linear-gradient-21"/>
        <linearGradient id="linear-gradient-34" x1="1.384" x2="-.608" y1="-.292" y2="1.494" xlink:href="#linear-gradient-21"/>
        <linearGradient id="linear-gradient-35" x1="1.54" x2="-.452" y1="-.432" y2="1.354" xlink:href="#linear-gradient-21"/>
        <linearGradient id="linear-gradient-36" x1="1.039" x2=".027" y1="-.125" y2="1.049" xlink:href="#linear-gradient"/>
        <linearGradient id="linear-gradient-37" x1="1.231" x2=".382" y1="-1.424" y2=".809" xlink:href="#linear-gradient-5"/>
        <linearGradient id="linear-gradient-38" x1="1.073" x2=".103" y1="-1.204" y2="1.68" xlink:href="#linear-gradient-5"/>
        <linearGradient id="linear-gradient-39" x1=".969" x2=".147" y1="-.234" y2="1.052" xlink:href="#linear-gradient"/>
        <linearGradient id="linear-gradient-40" x1="1.25" x2="-.048" y1="-.515" y2="1.242" xlink:href="#linear-gradient-5"/>
        <linearGradient id="linear-gradient-41" x1="1.174" x2="-.125" y1="-.412" y2="1.345" xlink:href="#linear-gradient-5"/>
        <linearGradient id="linear-gradient-42" x1="3.552" x2="-1.283" y1="-1.056" y2="1.409" xlink:href="#linear-gradient-5"/>
        <linearGradient id="linear-gradient-43" x1="2.461" x2="-2.374" y1="-.5" y2="1.965" xlink:href="#linear-gradient-5"/>
        <linearGradient id="linear-gradient-44" x1="1.37" x2="-3.465" y1=".057" y2="2.521" xlink:href="#linear-gradient-5"/>
        <linearGradient id="linear-gradient-45" x1="1.047" x2="-.898" y1="-.019" y2="1.827" gradientUnits="objectBoundingBox">
            <stop offset="0" stop-color="#e4f2ff" stop-opacity="0"/>
            <stop offset=".108" stop-color="#deecfe" stop-opacity=".141"/>
            <stop offset=".357" stop-color="#d2e2fc" stop-opacity=".443"/>
            <stop offset=".579" stop-color="#c9d9fb" stop-opacity=".682"/>
            <stop offset=".767" stop-color="#c2d3fa" stop-opacity=".855"/>
            <stop offset=".913" stop-color="#becffa" stop-opacity=".961"/>
            <stop offset=".999" stop-color="#bdcefa"/>
        </linearGradient>
        <linearGradient id="linear-gradient-46" x1="1.81" x2=".049" y1="-.37" y2=".8" xlink:href="#linear-gradient-45"/>
        <linearGradient id="linear-gradient-47" x1="-191.138" x2="-191.138" y1="1" gradientUnits="objectBoundingBox">
            <stop offset="0" stop-color="#00dfff"/>
            <stop offset=".251" stop-color="#0cf"/>
            <stop offset=".755" stop-color="#009bff"/>
            <stop offset="1" stop-color="#0082ff"/>
        </linearGradient>
        <style>
            .cls-2{fill:#bdcefa}.cls-7{fill:#e8f2fe}.cls-42,.cls-43{isolation:isolate}.cls-12{fill:#0084e9}.cls-13{fill:#52a3f6}.cls-14,.cls-42{fill:#fff}.cls-24{fill:#9ce3f0}.cls-27{fill:#ff9100}.cls-30{fill:#ffec00}.cls-39{fill:#b8d0f6}.cls-40{fill:#99b6e0}.cls-42,.cls-43{mix-blend-mode:overlay}.cls-44{fill:url(#linear-gradient-21)}.cls-70{fill:#6caadd}.cls-71{fill:#ffcda9}.cls-72{fill:#0071bc}.cls-73{fill:#131637}.cls-74{fill:none;stroke:#3bfaff;stroke-linecap:round;stroke-linejoin:round;stroke-width:.257px}.cls-79{fill:#000f1f}
        </style>
    </defs>
    <g id="Group_106" transform="translate(-41.579 -92)">
        <g id="Group_100" transform="translate(95.579 92)">
            <g id="Group_39" opacity="0.15" transform="translate(28.217 246.361)">
                <path id="Path_379" d="M462.908 477.375l-65.518 36.7c-2.9 1.676-8.018 1.464-11.37-.471l-21.793-13c-3.351-1.935-3.719-4.888-.816-6.564l65.267-37.44c2.9-1.676 8.019-1.464 11.37.471l22.044 13.738c3.351 1.936 3.718 4.891.816 6.566z" class="cls-2" transform="translate(-95.756 -300.028)"/>
                <path id="Path_380" d="M438.235 448.372l-65.518 36.7c-2.9 1.676-8.018 1.464-11.37-.471l-21.793-13c-3.351-1.935-3.719-4.888-.816-6.564l65.267-37.437c2.9-1.676 8.019-1.464 11.37.471l22.044 13.738c3.351 1.933 3.718 4.891.816 6.563z" class="cls-2" transform="translate(-98.358 -303.086)"/>
                <path id="Path_381" d="M476.662 406l-197.7 110.281c-8.757 5.055-24.2 4.415-34.307-1.423l-115.183-66.5c-10.112-5.838-11.22-14.751-2.463-19.808l197.7-110.28c8.756-5.056 24.2-4.416 34.307 1.422l115.183 66.5c10.112 5.837 11.22 14.751 2.463 19.808z" class="cls-2" transform="translate(-121.104 -314.857)"/>
            </g>
            <g id="Group_48" transform="translate(0 41.519)">
                <g id="Group_40" transform="translate(-54 11)">
                    <path id="Path_382" fill="url(#linear-gradient)" d="M97.915 271.729a2.342 2.342 0 0 1-2.336-2.337v-49.429a2.338 2.338 0 0 1 1.165-2.019l59.413-34.3a2.308 2.308 0 0 1 1.161-.317 2.342 2.342 0 0 1 2.337 2.337v49.428a2.339 2.339 0 0 1-1.166 2.02l-59.413 34.3a2.3 2.3 0 0 1-1.161.317z" transform="translate(-95.579 -123.888)"/>
                    <path id="Path_383" fill="url(#linear-gradient-2)" d="M138.326 346.245a5.008 5.008 0 0 1-5-5V235.529a5 5 0 0 1 2.493-4.318L262.9 157.844a4.916 4.916 0 0 1 2.483-.68 5.009 5.009 0 0 1 5 5V267.88a5 5 0 0 1-2.5 4.319l-127.075 73.367a4.905 4.905 0 0 1-2.482.679z" transform="translate(-91.598 -126.647)"/>
                    <path id="Path_384" fill="url(#linear-gradient-3)" d="M228.588 207.9a2.075 2.075 0 0 1-2.071-2.071v-43.8a2.073 2.073 0 0 1 1.033-1.79l52.652-30.4a2.026 2.026 0 0 1 1.028-.282 2.075 2.075 0 0 1 2.07 2.071v43.8a2.073 2.073 0 0 1-1.032 1.79l-52.652 30.4a2.031 2.031 0 0 1-1.028.282z" transform="translate(-81.77 -129.558)"/>
                    <path id="Path_385" fill="url(#linear-gradient-4)" d="M117.495 365.379a2.075 2.075 0 0 1-2.071-2.071v-43.8a2.073 2.073 0 0 1 1.033-1.79l52.652-30.4a2.037 2.037 0 0 1 1.028-.282 2.076 2.076 0 0 1 2.072 2.071v43.8a2.074 2.074 0 0 1-1.034 1.79l-52.652 30.4a2.03 2.03 0 0 1-1.028.282z" transform="translate(-93.486 -112.95)"/>
                </g>
                <g id="Group_44" transform="translate(63.13 63.628)">
                    <g id="Group_41" transform="translate(99.012 5.538)">
                        <ellipse id="Ellipse_42" cx="4.725" cy="2.727" class="cls-2" rx="4.725" ry="2.727" transform="rotate(-58.954 18.246 10.313)"/>
                        <path id="Path_386" d="M261 200.659a7.384 7.384 0 0 1-3.375 5.765c-1.865 1.077-3.376.24-3.376-1.867a7.381 7.381 0 0 1 3.376-5.765c1.863-1.077 3.375-.241 3.375 1.867z" class="cls-2" transform="translate(-240.987 -191.472)"/>
                        <path id="Path_387" d="M271.731 194.463a7.386 7.386 0 0 1-3.375 5.765c-1.865 1.076-3.376.24-3.376-1.868a7.384 7.384 0 0 1 3.376-5.765c1.864-1.076 3.375-.24 3.375 1.868z" class="cls-2" transform="translate(-239.855 -192.125)"/>
                    </g>
                    <g id="Group_42" transform="translate(0 47.503)">
                        <path id="Path_388" d="M173.331 260.924a29.389 29.389 0 0 1-7.632 6.14c-6.922 4-13.012 1.782-13.012-7.656 0-9.824 6.173-21.913 15.6-27.355 7.34-4.237 12.6-1.445 12.6 6.646 0 7.031-3.42 13.436-7.924 16.037-1.96 1.131-3.378.795-3.587-1.637l-.083.048a13.4 13.4 0 0 1-5.38 6.814c-2.711 1.565-4.671.386-4.671-3.563 0-5.876 3.753-13.388 9.759-16.856a10.985 10.985 0 0 1 4.962-1.66l-1.25 9.631c-.418 3.082-.126 4.214 1.042 3.588 1.793-.987 4.045-4.937 4.045-10.474 0-6.261-3.5-9.1-9.968-5.37-6.381 3.685-11.969 12.69-11.969 21.888 0 8.042 4.462 10.041 10.677 6.453a23.929 23.929 0 0 0 6.047-5.032zm-3.711-17.746a5.5 5.5 0 0 0-1.293.554c-2.753 1.589-4.922 5.971-4.922 9.679 0 1.83.71 2.576 2.086 1.782 1.543-.891 3.169-4.094 3.545-7.1z" class="cls-2" transform="translate(-152.686 -230.087)"/>
                    </g>
                    <g id="Group_43" transform="translate(38.65)">
                        <path id="Path_389" d="M187.709 204.819l14.572 4.039c.45.124 1.145-.276 1.6-.921l14.577-20.821z" class="cls-2" transform="translate(-187.643 -187.116)"/>
                        <path id="Path_390" d="M198.065 207.29l-10.14 16.779a1.508 1.508 0 0 1-.275-.913v-18.729z" class="cls-2" transform="translate(-187.649 -185.29)"/>
                        <path id="Path_391" d="M207.043 202.974l10.21 5.117a3.836 3.836 0 0 1-.955.8l-26.655 15.389a2.037 2.037 0 0 1-.88.3l10.2-16.888 4.01 1.114z" class="cls-2" transform="translate(-187.532 -185.444)"/>
                        <path id="Path_392" d="M216.566 188.3v18.73a3.464 3.464 0 0 1-.252 1.138l-10.083-5.077z" class="cls-2" transform="translate(-185.689 -186.991)"/>
                    </g>
                </g>
                <g id="Group_47" transform="translate(34.804 16.626)">
                    <path id="Path_393" d="M317.344 218.13a.246.246 0 0 1-.247-.247v-72.432l-98.616 57.024a.246.246 0 0 1-.247-.427l99.357-57.448v73.286a.246.246 0 0 1-.247.244z" class="cls-2" transform="translate(-117.461 -144.598)"/>
                    <g id="Group_46" transform="translate(0 42.337)">
                        <g id="Group_45" transform="translate(61.497)">
                            <path id="Path_394" d="M313.894 211.487a.473.473 0 0 1-.493-.469v-.05a.492.492 0 1 1 .985 0 .514.514 0 0 1-.492.519z" class="cls-2" transform="translate(-168.908 -179.987)"/>
                            <path id="Path_395" d="M313.894 210.239a.455.455 0 0 1-.493-.447v-.092a.492.492 0 1 1 .985 0 .534.534 0 0 1-.492.539zm0-3.819a.454.454 0 0 1-.493-.445v-.094a.492.492 0 1 1 .985 0 .534.534 0 0 1-.492.539zm0-3.818a.455.455 0 0 1-.493-.447v-.093a.492.492 0 1 1 .985 0 .534.534 0 0 1-.492.538zm0-3.819a.454.454 0 0 1-.493-.445v-.094a.492.492 0 1 1 .985 0 .534.534 0 0 1-.492.538zm0-3.818a.455.455 0 0 1-.493-.447v-.094a.492.492 0 0 1 .985 0 .535.535 0 0 1-.492.54zm0-3.819a.455.455 0 0 1-.493-.447v-.093a.492.492 0 0 1 .985 0 .534.534 0 0 1-.492.539zm0-3.819a.454.454 0 0 1-.493-.445v-.093a.492.492 0 1 1 .985 0 .533.533 0 0 1-.492.536z" class="cls-2" transform="translate(-168.908 -182.537)"/>
                            <path id="Path_396" d="M313.9 183.888a.5.5 0 0 1-.412-.206.386.386 0 0 1-.041-.061.473.473 0 0 1 .17-.658.54.54 0 0 1 .511-.007.494.494 0 0 1 .264.413.514.514 0 0 1-.492.519z" class="cls-2" transform="translate(-168.911 -182.896)"/>
                            <path id="Path_397" d="M186.335 262.4a.493.493 0 0 1-.241-.923l.086-.049a.493.493 0 1 1 .481.861l-.086.048a.484.484 0 0 1-.24.063zm3.524-1.968a.493.493 0 0 1-.241-.923l.086-.048a.493.493 0 1 1 .481.86l-.086.049a.494.494 0 0 1-.24.058zm3.524-1.967a.493.493 0 0 1-.242-.923.537.537 0 0 1 .714.165.453.453 0 0 1-.145.647l-.086.049a.5.5 0 0 1-.24.058zm3.524-1.968a.493.493 0 0 1-.241-.923l.086-.049a.493.493 0 1 1 .481.861l-.086.048a.484.484 0 0 1-.239.06zm3.524-1.968a.493.493 0 0 1-.241-.923l.086-.048a.493.493 0 1 1 .481.86l-.086.048a.484.484 0 0 1-.239.06zm3.524-1.968a.493.493 0 0 1-.242-.922.536.536 0 0 1 .714.164.454.454 0 0 1-.145.648l-.086.048a.488.488 0 0 1-.24.059zm3.524-1.967a.493.493 0 0 1-.242-.923.537.537 0 0 1 .714.165.452.452 0 0 1-.145.647l-.086.049a.5.5 0 0 1-.24.06zm3.521-1.97a.493.493 0 0 1-.241-.923l.086-.049a.493.493 0 0 1 .481.861l-.086.048a.484.484 0 0 1-.24.063zm3.524-1.968a.493.493 0 0 1-.241-.923l.086-.048a.493.493 0 1 1 .481.86l-.086.049a.494.494 0 0 1-.235.062zm3.524-1.968a.493.493 0 0 1-.24-.923.535.535 0 0 1 .713.168.452.452 0 0 1-.148.646l-.085.048a.486.486 0 0 1-.235.061zm3.524-1.967a.493.493 0 0 1-.239-.924.537.537 0 0 1 .713.169.453.453 0 0 1-.15.646l-.086.048a.486.486 0 0 1-.233.062zm3.524-1.968a.493.493 0 0 1-.239-.924.538.538 0 0 1 .713.169.453.453 0 0 1-.15.646l-.086.048a.486.486 0 0 1-.234.062zm3.524-1.968a.493.493 0 0 1-.24-.923.537.537 0 0 1 .713.167.454.454 0 0 1-.148.647l-.086.048a.49.49 0 0 1-.233.062zm3.524-1.967a.493.493 0 0 1-.24-.924.536.536 0 0 1 .713.168.452.452 0 0 1-.148.646l-.085.048a.487.487 0 0 1-.234.064zm3.524-1.968a.493.493 0 0 1-.239-.924.538.538 0 0 1 .713.169.454.454 0 0 1-.15.646l-.086.048a.486.486 0 0 1-.232.063zm3.524-1.968a.493.493 0 0 1-.241-.923l.086-.048a.493.493 0 1 1 .481.86l-.086.049a.494.494 0 0 1-.232.064zm3.524-1.967a.493.493 0 0 1-.242-.923.536.536 0 0 1 .714.165.453.453 0 0 1-.145.647l-.086.049a.5.5 0 0 1-.234.065zm3.524-1.968a.493.493 0 0 1-.241-.923l.086-.049a.493.493 0 0 1 .481.861l-.086.048a.487.487 0 0 1-.233.066zm3.524-1.968a.493.493 0 0 1-.241-.923l.086-.048a.493.493 0 1 1 .481.86l-.086.049a.494.494 0 0 1-.233.065zm3.524-1.968a.493.493 0 0 1-.242-.922.536.536 0 0 1 .714.164.454.454 0 0 1-.145.648l-.086.048a.488.488 0 0 1-.229.066zm3.524-1.967a.493.493 0 0 1-.242-.923.535.535 0 0 1 .714.165.453.453 0 0 1-.145.647l-.086.049a.5.5 0 0 1-.233.066zm3.524-1.968a.493.493 0 0 1-.241-.923l.086-.048a.493.493 0 1 1 .481.86l-.086.048a.487.487 0 0 1-.232.067zm3.524-1.968a.493.493 0 0 1-.241-.923l.086-.048a.493.493 0 1 1 .481.86l-.086.049a.494.494 0 0 1-.232.066zm3.524-1.967a.493.493 0 0 1-.242-.923.538.538 0 0 1 .714.164.454.454 0 0 1-.145.648l-.086.049a.5.5 0 0 1-.233.067zm3.524-1.968a.493.493 0 0 1-.242-.923.537.537 0 0 1 .714.165.453.453 0 0 1-.145.647l-.086.049a.488.488 0 0 1-.233.067zm3.524-1.968a.493.493 0 0 1-.241-.923l.086-.048a.493.493 0 1 1 .481.86l-.086.049a.5.5 0 0 1-.231.067zm3.524-1.968a.493.493 0 0 1-.241-.923l.086-.048a.493.493 0 1 1 .481.86l-.086.049a.494.494 0 0 1-.231.068zm3.524-1.967a.493.493 0 0 1-.242-.923.536.536 0 0 1 .714.164.454.454 0 0 1-.145.648l-.086.049a.5.5 0 0 1-.232.068zm3.524-1.968a.493.493 0 0 1-.242-.923.54.54 0 0 1 .714.165.453.453 0 0 1-.145.647l-.086.049a.487.487 0 0 1-.232.068zm3.523-1.968a.493.493 0 0 1-.239-.923.536.536 0 0 1 .713.167.455.455 0 0 1-.148.647l-.086.048a.494.494 0 0 1-.231.068zm3.524-1.968a.492.492 0 0 1-.238-.924l.086-.048a.493.493 0 1 1 .476.863l-.087.048a.5.5 0 0 1-.227.068zm3.525-1.967a.493.493 0 0 1-.24-.924.537.537 0 0 1 .713.168.453.453 0 0 1-.148.646l-.085.048a.484.484 0 0 1-.23.069zm3.523-1.968a.493.493 0 0 1-.239-.924.539.539 0 0 1 .713.168.454.454 0 0 1-.148.647l-.086.048a.494.494 0 0 1-.23.069zm3.525-1.968a.493.493 0 0 1-.24-.923.537.537 0 0 1 .713.167.454.454 0 0 1-.148.647l-.085.048a.494.494 0 0 1-.23.069zm3.524-1.968a.493.493 0 0 1-.24-.923.538.538 0 0 1 .713.167.454.454 0 0 1-.148.647l-.086.048a.475.475 0 0 1-.228.066zm3.523-1.967a.492.492 0 0 1-.239-.923l.086-.049a.493.493 0 1 1 .479.861l-.086.049a.494.494 0 0 1-.229.07zm3.525-1.968a.493.493 0 0 1-.242-.922.539.539 0 0 1 .714.164.454.454 0 0 1-.145.648l-.086.048a.487.487 0 0 1-.23.071zm3.524-1.967a.493.493 0 0 1-.242-.923.538.538 0 0 1 .714.165.454.454 0 0 1-.145.647l-.086.049a.5.5 0 0 1-.23.069zm3.523-1.968a.493.493 0 0 1-.24-.924l.087-.048a.493.493 0 1 1 .479.861l-.086.049a.494.494 0 0 1-.229.071zm3.525-1.968a.493.493 0 0 1-.242-.922.537.537 0 0 1 .714.164.455.455 0 0 1-.145.648l-.086.048a.488.488 0 0 1-.229.072z" class="cls-2" transform="translate(-182.361 -182.708)"/>
                            <path id="Path_398" d="M183.186 256.858a.472.472 0 0 1-.493-.468.58.58 0 0 1 .251-.48.515.515 0 0 1 .693.177.536.536 0 0 1-.451.771z" class="cls-2" transform="translate(-182.693 -175.202)"/>
                            <path id="Path_399" d="M183.186 285.8a.493.493 0 0 1-.493-.493v-.1a.493.493 0 0 1 .986 0v.1a.494.494 0 0 1-.493.493zm0-4.188a.492.492 0 0 1-.493-.493v-.1a.493.493 0 0 1 .986 0v.1a.493.493 0 0 1-.493.493zm0-4.187a.492.492 0 0 1-.493-.493v-.1a.493.493 0 0 1 .986 0v.1a.493.493 0 0 1-.493.493zm0-4.187a.492.492 0 0 1-.493-.493v-.1a.493.493 0 1 1 .986 0v.1a.493.493 0 0 1-.493.492zm0-4.186a.493.493 0 0 1-.493-.493v-.1a.493.493 0 0 1 .986 0v.1a.494.494 0 0 1-.493.492zm0-4.189a.492.492 0 0 1-.493-.492v-.1a.493.493 0 0 1 .986 0v.1a.493.493 0 0 1-.493.491zm0-4.187a.492.492 0 0 1-.493-.492v-.1a.493.493 0 0 1 .986 0v.1a.493.493 0 0 1-.493.491z" class="cls-2" transform="translate(-182.693 -174.808)"/>
                            <path id="Path_400" d="M183.186 287.135a.492.492 0 0 1-.493-.493.514.514 0 0 1 .493-.517.473.473 0 0 1 .493.469v.049a.493.493 0 0 1-.493.492z" class="cls-2" transform="translate(-182.693 -172.009)"/>
                        </g>
                        <path id="Path_401" d="M127.31 309.6a.247.247 0 0 1-.247-.247v-39.39l.13-.07 23.135-12.246a.247.247 0 1 1 .231.437l-23 12.177v39.1a.247.247 0 0 1-.249.239z" class="cls-2" transform="translate(-127.063 -175.015)"/>
                        <path id="Path_402" d="M142.384 378.51a.453.453 0 0 1-.493-.443v-.1a.492.492 0 1 1 .985 0 .536.536 0 0 1-.492.543zm0-3.992a.492.492 0 0 1-.493-.493v-.1a.492.492 0 1 1 .985 0v.1a.492.492 0 0 1-.492.493zm0-4.09a.454.454 0 0 1-.493-.444v-.1a.492.492 0 0 1 .985 0 .537.537 0 0 1-.492.544zm0-3.992a.493.493 0 0 1-.493-.493v-.1a.492.492 0 1 1 .985 0v.1a.493.493 0 0 1-.492.493zm0-4.091a.453.453 0 0 1-.493-.443v-.1a.492.492 0 1 1 .985 0 .537.537 0 0 1-.492.543zm0-4.04a.453.453 0 0 1-.493-.444v-.1a.492.492 0 1 1 .985 0 .537.537 0 0 1-.492.539zm0-3.992a.492.492 0 0 1-.493-.493v-.1a.492.492 0 1 1 .985 0v.1a.492.492 0 0 1-.492.492zm0-4.09a.454.454 0 0 1-.493-.444v-.1a.492.492 0 1 1 .985 0 .537.537 0 0 1-.492.543zm0-3.992a.493.493 0 0 1-.493-.493v-.1a.492.492 0 1 1 .985 0v.1a.493.493 0 0 1-.492.492zm0-4.091a.453.453 0 0 1-.493-.443v-.1a.492.492 0 1 1 .985 0 .536.536 0 0 1-.492.542zm0-3.992a.492.492 0 0 1-.493-.493v-.1a.492.492 0 1 1 .985 0v.1a.492.492 0 0 1-.492.492zm0-4.04a.493.493 0 0 1-.493-.493v-.1a.492.492 0 1 1 .985 0v.1a.493.493 0 0 1-.492.492zm0-4.091a.453.453 0 0 1-.493-.443v-.1a.492.492 0 1 1 .985 0 .536.536 0 0 1-.492.541zm0-3.991a.493.493 0 0 1-.493-.493v-.1a.492.492 0 1 1 .985 0v.1a.493.493 0 0 1-.492.491zm0-4.042a.492.492 0 0 1-.493-.493v-.1a.492.492 0 1 1 .985 0v.1a.492.492 0 0 1-.492.492zm0-4.042a.492.492 0 0 1-.493-.493v-.1a.492.492 0 1 1 .985 0v.1a.492.492 0 0 1-.492.492zm0-4.04a.493.493 0 0 1-.493-.493v-.1a.492.492 0 1 1 .985 0v.1a.493.493 0 0 1-.492.491zm0-4.091a.453.453 0 0 1-.493-.443v-.1a.492.492 0 1 1 .985 0 .536.536 0 0 1-.492.542zm0-3.991a.493.493 0 0 1-.493-.493v-.1a.492.492 0 1 1 .985 0v.1a.493.493 0 0 1-.492.492zm0-4.042a.493.493 0 0 1-.493-.493v-.1a.492.492 0 1 1 .985 0v.1a.493.493 0 0 1-.492.492zm0-4.042a.492.492 0 0 1-.493-.493v-.1a.492.492 0 1 1 .985 0v.1a.492.492 0 0 1-.492.493zm0-4.04a.493.493 0 0 1-.493-.493v-.1a.492.492 0 1 1 .985 0v.1a.493.493 0 0 1-.492.497zm0-4.091a.453.453 0 0 1-.493-.443v-.1a.492.492 0 1 1 .985 0 .536.536 0 0 1-.492.538zm0-3.991a.493.493 0 0 1-.493-.493v-.1a.492.492 0 1 1 .985 0v.1a.493.493 0 0 1-.492.492zm0-4.042a.493.493 0 0 1-.493-.493v-.1a.492.492 0 1 1 .985 0v.1a.493.493 0 0 1-.492.493zm0-4.042a.492.492 0 0 1-.493-.493v-.1a.492.492 0 1 1 .985 0v.1a.492.492 0 0 1-.492.493zm0-4.04a.493.493 0 0 1-.493-.493v-.1a.492.492 0 0 1 .985 0v.1a.493.493 0 0 1-.492.493zm0-4.091a.453.453 0 0 1-.493-.443v-.1a.492.492 0 1 1 .985 0 .536.536 0 0 1-.492.544zm0-3.991a.493.493 0 0 1-.493-.493v-.1a.492.492 0 1 1 .985 0v.1a.493.493 0 0 1-.492.492zm0-4.042a.493.493 0 0 1-.493-.493v-.1a.492.492 0 1 1 .985 0v.1a.493.493 0 0 1-.492.493zm0-4.042a.492.492 0 0 1-.493-.493v-.1a.492.492 0 1 1 .985 0v.1a.492.492 0 0 1-.492.493zm0-4.04a.493.493 0 0 1-.493-.493v-.1a.492.492 0 0 1 .985 0v.1a.493.493 0 0 1-.492.493zm0-4.091a.453.453 0 0 1-.493-.443v-.1a.492.492 0 1 1 .985 0 .536.536 0 0 1-.492.543zm0-3.991a.493.493 0 0 1-.493-.493v-.1a.492.492 0 1 1 .985 0v.1a.493.493 0 0 1-.492.491zm0-4.042a.493.493 0 0 1-.493-.493v-.1a.492.492 0 1 1 .985 0v.1a.493.493 0 0 1-.492.493zm0-4.042a.492.492 0 0 1-.493-.493v-.1a.492.492 0 1 1 .985 0v.1a.492.492 0 0 1-.492.494zm0-4.04a.493.493 0 0 1-.493-.493v-.1a.492.492 0 0 1 .985 0v.1a.493.493 0 0 1-.492.493zm1.9-2.937a.492.492 0 0 1-.245-.92l.085-.049a.492.492 0 0 1 .49.855l-.085.049a.491.491 0 0 1-.242.065zm3.562-2.044a.5.5 0 0 1-.438-.231.454.454 0 0 1 .14-.648l.085-.049a.493.493 0 1 1 .49.856.555.555 0 0 1-.275.075zm3.51-2a.5.5 0 0 1-.438-.232.453.453 0 0 1 .143-.648l.085-.049a.493.493 0 1 1 .486.858.559.559 0 0 1-.274.069zm3.459-1.96a.493.493 0 0 1-.245-.921l.085-.049a.492.492 0 0 1 .49.855l-.085.049a.481.481 0 0 1-.243.064zm3.562-2.045a.5.5 0 0 1-.439-.231.455.455 0 0 1 .144-.649l.085-.049a.493.493 0 0 1 .486.858.559.559 0 0 1-.274.069zm3.51-2a.493.493 0 0 1-.438-.232.453.453 0 0 1 .143-.648l.085-.049a.493.493 0 0 1 .486.858.559.559 0 0 1-.274.067zm3.459-1.96a.492.492 0 0 1-.245-.92l.085-.05a.492.492 0 0 1 .49.855l-.085.05a.491.491 0 0 1-.243.061zm3.562-2.044a.5.5 0 0 1-.438-.232.453.453 0 0 1 .143-.648l.085-.049a.493.493 0 0 1 .486.858.571.571 0 0 1-.274.067zm3.51-2a.5.5 0 0 1-.438-.232.453.453 0 0 1 .143-.648l.085-.049a.493.493 0 0 1 .486.858.571.571 0 0 1-.274.065zm3.459-1.961a.492.492 0 0 1-.245-.92l.085-.049a.492.492 0 0 1 .49.855l-.085.049a.491.491 0 0 1-.243.059zm3.562-2.044a.493.493 0 0 1-.438-.232.453.453 0 0 1 .143-.648l.085-.049a.493.493 0 0 1 .486.858.559.559 0 0 1-.275.065zm3.51-2a.5.5 0 0 1-.438-.232.453.453 0 0 1 .143-.648l.085-.049a.493.493 0 0 1 .486.858.559.559 0 0 1-.275.063zm3.459-1.96a.493.493 0 0 1-.245-.921l.085-.049a.492.492 0 1 1 .49.855l-.085.049a.492.492 0 0 1-.244.058z" class="cls-2" transform="translate(-125.499 -180.556)"/>
                        <path id="Path_403" d="M206.139 234.271a.5.5 0 0 1-.437-.229.453.453 0 0 1 .139-.648l.085-.05a.493.493 0 0 1 .492.855.561.561 0 0 1-.279.072zm-1.616-1.187a.493.493 0 0 1-.493-.493v-.1a.493.493 0 1 1 .986 0v.1a.493.493 0 0 1-.493.493zm5.114-.836a.493.493 0 0 1-.436-.229.453.453 0 0 1 .138-.648l.085-.05a.493.493 0 1 1 .492.853.562.562 0 0 1-.279.074zm3.5-2.023a.5.5 0 0 1-.437-.225.453.453 0 0 1 .139-.649l.085-.049a.493.493 0 0 1 .492.853.565.565 0 0 1-.28.07zm-8.613-1.183a.493.493 0 0 1-.493-.493v-.1a.493.493 0 1 1 .986 0v.1a.493.493 0 0 1-.494.493zm12.11-.84a.493.493 0 0 1-.436-.23.453.453 0 0 1 .138-.648l.085-.049a.493.493 0 1 1 .492.853.562.562 0 0 1-.28.072zm3.447-1.981a.492.492 0 0 1-.248-.919l.086-.05a.493.493 0 1 1 .494.852l-.086.05a.486.486 0 0 1-.247.067zM204.523 225a.492.492 0 0 1-.493-.493.537.537 0 0 1 .493-.542.454.454 0 0 1 .493.444v.1a.493.493 0 0 1-.493.491zm19.107-.846a.5.5 0 0 1-.436-.227.454.454 0 0 1 .136-.649l.085-.05a.493.493 0 1 1 .5.852.562.562 0 0 1-.285.075zm3.5-2.023a.493.493 0 0 1-.434-.227.453.453 0 0 1 .136-.649l.085-.05a.492.492 0 0 1 .5.851.557.557 0 0 1-.289.076zm-22.6-1.172a.492.492 0 0 1-.493-.493v-.1a.493.493 0 1 1 .986 0v.1a.493.493 0 0 1-.5.494zm26.052-.808a.493.493 0 0 1-.248-.92l.085-.05a.493.493 0 0 1 .494.853l-.085.049a.493.493 0 0 1-.252.069zm3.549-2.066a.5.5 0 0 1-.434-.227.454.454 0 0 1 .136-.65l.085-.05a.493.493 0 0 1 .5.852.56.56 0 0 1-.294.076zm-29.6-1.167a.492.492 0 0 1-.493-.493v-.1a.493.493 0 1 1 .986 0v.1a.493.493 0 0 1-.501.493zm33.1-.856a.493.493 0 0 1-.436-.229.454.454 0 0 1 .138-.649l.085-.049a.493.493 0 1 1 .492.853.562.562 0 0 1-.287.075zm3.447-1.981a.493.493 0 0 1-.245-.921l.085-.049a.493.493 0 1 1 .491.855l-.086.05a.488.488 0 0 1-.253.066zm3.55-2.066a.5.5 0 0 1-.437-.229.453.453 0 0 1 .139-.648l.085-.05a.493.493 0 0 1 .492.855.573.573 0 0 1-.288.073z" class="cls-2" transform="translate(-118.946 -179.929)"/>
                    </g>
                </g>
            </g>
            <g id="Group_55" transform="translate(318.346 99.537)">
                <g id="Group_50" transform="translate(1.741 20.647)">
                    <path id="Path_404" d="M419.591 208.682l-28.65 16.541c-2.089 1.207-5.771 1.054-8.183-.339l-27.475-15.862c-2.412-1.393-2.676-3.519-.587-4.725l28.649-16.541c2.089-1.206 5.772-1.053 8.183.339L419 203.958c2.415 1.393 2.68 3.518.591 4.724z" class="cls-7" transform="translate(-353.286 -186.942)"/>
                    <g id="Group_49" opacity="0.38" transform="translate(.001 19.765)">
                        <path id="Path_405" fill="url(#linear-gradient-5)" d="M425.344 312.95V209.61a2.6 2.6 0 0 1-1.37 1.672l-28.65 16.541a7.419 7.419 0 0 1-3.8.8V332.7a7.428 7.428 0 0 0 3.8-.8l28.65-16.541a2.3 2.3 0 0 0 1.37-2.409z" transform="translate(-357.67 -209.306)"/>
                        <path id="Path_406" d="M382.757 227.443l-27.475-15.862a3.66 3.66 0 0 1-1.958-2.314v103.34c-.212 1.036.457 2.187 1.958 3.054l27.475 15.862a9.443 9.443 0 0 0 4.383 1.142V228.586a9.443 9.443 0 0 1-4.383-1.143z" transform="translate(-353.287 -209.267)" style="isolation:isolate;mix-blend-mode:color-dodge" fill="#ddd"/>
                        <path id="Path_407" fill="url(#linear-gradient-6)" d="M382.757 227.443l-27.475-15.862a3.66 3.66 0 0 1-1.958-2.314v103.34c-.212 1.036.457 2.187 1.958 3.054l27.475 15.862a9.443 9.443 0 0 0 4.383 1.142V228.586a9.443 9.443 0 0 1-4.383-1.143z" transform="translate(-353.287 -209.267)"/>
                    </g>
                </g>
                <g id="Group_54">
                    <g id="Group_52">
                        <path id="Path_408" d="M410.725 216.264c0 5.869-3.1 9.107-7.518 8.686a5.6 5.6 0 0 1-3.394-.876L363.2 202.936a9.8 9.8 0 0 1-.9-.589c-6.169-4.276-10.984-13.071-10.984-20.38 0-7.121 4.564-10.368 10.5-7.91.888-5.057 5.112-6.839 10.191-3.906a18.545 18.545 0 0 1 4.7 4.017c2.7-2.289 6.814-2.371 11.431.295 6.934 4 12.744 12.906 14.287 21.26a9.712 9.712 0 0 1 3.8 7.012 25.76 25.76 0 0 1 4.5 13.529z" class="cls-12" transform="translate(-351.32 -164.208)"/>
                        <g id="Group_51" transform="translate(3.788)">
                            <path id="Path_409" d="M414.639 197.619a9.718 9.718 0 0 0-3.8-7.012c-1.543-8.354-7.353-17.257-14.287-21.261-4.061-2.344-7.734-2.561-10.4-1.023l-1.118.638a18.492 18.492 0 0 0-4.619-3.927c-2.876-1.66-5.477-1.806-7.354-.7l-6.665 3.812a6.3 6.3 0 0 0-2.96.73l-7.842 4.485c1.8-.944 4.125-.957 6.709.114.888-5.057 5.112-6.839 10.19-3.906a18.544 18.544 0 0 1 4.7 4.017c2.7-2.289 6.814-2.371 11.431.295 6.934 4 12.744 12.906 14.287 21.26a9.711 9.711 0 0 1 3.8 7.012 25.76 25.76 0 0 1 4.5 13.529c0 4-1.44 6.768-3.752 8l7.841-4.484c2.359-1.21 3.832-4 3.832-8.045a25.76 25.76 0 0 0-4.493-13.534z" class="cls-13" transform="translate(-355.598 -163.621)"/>
                        </g>
                    </g>
                    <g id="Group_53" transform="translate(12.141 29.292)">
                        <path id="Path_410" d="M369.561 200.936c0 1.444-1.014 2.029-2.264 1.307a5 5 0 0 1-2.264-3.92c0-1.444 1.014-2.029 2.264-1.308a5.006 5.006 0 0 1 2.264 3.921z" class="cls-14" transform="translate(-365.033 -196.706)"/>
                        <path id="Path_411" d="M377.543 205.545c0 1.443-1.014 2.028-2.264 1.307a5 5 0 0 1-2.264-3.921c0-1.443 1.014-2.028 2.264-1.307a5 5 0 0 1 2.264 3.921z" class="cls-14" transform="translate(-365.948 -197.234)"/>
                        <path id="Path_412" d="M385.525 210.153c0 1.444-1.014 2.029-2.264 1.307a5 5 0 0 1-2.261-3.92c0-1.444 1.014-2.029 2.264-1.308a5.005 5.005 0 0 1 2.261 3.921z" class="cls-14" transform="translate(-366.863 -197.763)"/>
                        <path id="Path_413" d="M393.507 214.762c0 1.443-1.014 2.028-2.264 1.307a5.005 5.005 0 0 1-2.264-3.921c0-1.444 1.014-2.028 2.264-1.307a5 5 0 0 1 2.264 3.921z" class="cls-14" transform="translate(-367.778 -198.291)"/>
                        <path id="Path_414" d="M401.489 219.37c0 1.444-1.014 2.029-2.264 1.307a5 5 0 0 1-2.264-3.921c0-1.443 1.014-2.028 2.264-1.307a5.005 5.005 0 0 1 2.264 3.921z" class="cls-14" transform="translate(-368.693 -198.819)"/>
                    </g>
                </g>
            </g>
            <g id="Group_57" transform="translate(266.64 333.021)">
                <path id="Path_415" d="M438.235 415.154l-65.518 36.7c-2.9 1.676-8.018 1.464-11.37-.471l-21.793-13c-3.351-1.935-3.719-4.888-.816-6.564l65.267-37.435c2.9-1.676 8.019-1.464 11.37.471l22.044 13.738c3.351 1.931 3.718 4.885.816 6.561z" class="cls-7" transform="translate(-336.781 -393.25)"/>
                <g id="Group_56" transform="translate(.001 19.581)">
                    <path id="Path_416" fill="url(#linear-gradient-7)" d="M437.213 417.384v-6.419a3.619 3.619 0 0 1-1.9 2.323l-65.518 36.7a10.312 10.312 0 0 1-5.28 1.114v7.448a10.3 10.3 0 0 0 5.28-1.115l65.518-36.7c1.515-.879 2.13-2.104 1.9-3.351z" transform="translate(-333.857 -410.963)"/>
                    <path id="Path_417" fill="url(#linear-gradient-8)" d="M361.348 447.382l-21.793-13a5.082 5.082 0 0 1-2.719-3.215v6.419c-.294 1.439.633 3.038 2.719 4.243l21.793 13a13.114 13.114 0 0 0 6.09 1.586v-7.448a13.126 13.126 0 0 1-6.09-1.585z" transform="translate(-336.782 -408.832)"/>
                </g>
            </g>
            <g id="Group_59" transform="translate(293.915 373.392)">
                <path id="Path_418" d="M462.908 451.674l-65.518 36.7c-2.9 1.676-8.018 1.464-11.37-.471l-21.793-13c-3.351-1.936-3.719-4.889-.816-6.564l65.267-37.439c2.9-1.676 8.019-1.464 11.37.471l22.044 13.739c3.351 1.934 3.718 4.89.816 6.564z" class="cls-7" transform="translate(-361.454 -429.769)"/>
                <g id="Group_58" transform="translate(.001 19.581)">
                    <path id="Path_419" fill="url(#linear-gradient-9)" d="M461.886 453.9v-6.42a3.618 3.618 0 0 1-1.9 2.324l-65.518 36.7a10.3 10.3 0 0 1-5.28 1.115v7.448a10.324 10.324 0 0 0 5.28-1.115l65.518-36.7a3.2 3.2 0 0 0 1.9-3.352z" transform="translate(-358.53 -447.482)"/>
                    <path id="Path_420" fill="url(#linear-gradient-10)" d="M386.021 483.9l-21.793-13a5.076 5.076 0 0 1-2.719-3.215v6.419c-.294 1.44.633 3.039 2.719 4.243l21.793 13a13.127 13.127 0 0 0 6.09 1.586v-7.448a13.113 13.113 0 0 1-6.09-1.585z" transform="translate(-361.455 -445.351)"/>
                </g>
            </g>
            <g id="Group_79" transform="translate(28.217 199.488)">
                <g id="Group_61" transform="translate(0 .8)">
                    <path id="Path_421" d="M476.662 364.321L282.317 476.277c-8.758 5.056-24.2 4.416-34.307-1.422l-118.535-68.177c-10.112-5.838-11.22-14.751-2.463-19.807L324.71 276.59c8.756-5.055 24.2-4.415 34.307 1.423l115.183 66.5c10.111 5.838 11.219 14.752 2.462 19.808z" class="cls-7" transform="translate(-121.104 -273.18)"/>
                    <g id="Group_60" transform="translate(.004 84.131)">
                        <path id="Path_422" fill="url(#linear-gradient-11)" d="M468.544 354.64v-5.354c-.538 2.638-2.433 5.1-5.742 7.009L268.457 468.251c-4.21 2.43-9.969 3.511-15.932 3.365v8.451c5.963.147 11.722-.934 15.932-3.364L462.8 364.746c4.582-2.646 6.437-6.346 5.744-10.106z" transform="translate(-107.248 -349.285)"/>
                        <path id="Path_423" d="M248.01 463.045l-118.536-68.177c-4.823-2.785-7.574-6.269-8.206-9.7v5.353c-.889 4.344 1.912 9.168 8.206 12.8L248.01 471.5a39.578 39.578 0 0 0 18.375 4.786v-8.451a39.566 39.566 0 0 1-18.375-4.79z" transform="translate(-121.107 -345.501)" style="isolation:isolate;mix-blend-mode:color-dodge" fill="#c9c9c9"/>
                        <path id="Path_424" fill="url(#linear-gradient-12)" d="M248.01 463.045l-118.536-68.177c-4.823-2.785-7.574-6.269-8.206-9.7v5.353c-.889 4.344 1.912 9.168 8.206 12.8L248.01 471.5a39.578 39.578 0 0 0 18.375 4.786v-8.451a39.566 39.566 0 0 1-18.375-4.79z" transform="translate(-121.107 -345.501)"/>
                    </g>
                </g>
                <g id="Group_70" transform="translate(29.194 93.946)">
                    <g id="Group_62">
                        <path id="Path_425" d="M291.328 417.1l-40.582 23.43-103.233-59.661 40.581-23.43z" class="cls-14" transform="translate(-147.513 -357.44)"/>
                        <path id="Path_426" fill="url(#linear-gradient-13)" d="M281.479 411.412v16.845L240.9 451.686v-16.845z" transform="translate(-137.664 -351.747)"/>
                        <path id="Path_427" fill="url(#linear-gradient-14)" d="M147.513 378.634v16.845l103.233 59.664V438.3z" transform="translate(-147.513 -355.204)"/>
                    </g>
                    <g id="Group_69" transform="translate(18.34 4.558)">
                        <g id="Group_64">
                            <path id="Path_428" d="M205.314 375.074l-17.807 10.281a5.674 5.674 0 0 1-5.086-.211l-17.076-9.859c-1.5-.866-1.664-2.187-.366-2.936l17.807-10.281a5.678 5.678 0 0 1 5.086.21l17.077 9.86c1.499.862 1.662 2.187.365 2.936z" class="cls-24" transform="translate(-164.103 -361.563)"/>
                            <g id="Group_63" transform="translate(0 12.284)">
                                <path id="Path_429" fill="#39c2d1" d="M204.157 380.687v-7.841a1.614 1.614 0 0 1-.851 1.039l-17.806 10.28a4.608 4.608 0 0 1-2.362.5v8.3a4.608 4.608 0 0 0 2.362-.5l17.807-10.281a1.431 1.431 0 0 0 .85-1.497z" transform="translate(-162.096 -372.657)"/>
                                <path id="Path_430" fill="#20a8af" d="M182.421 383.972l-17.076-9.859a2.272 2.272 0 0 1-1.217-1.438v7.841c-.132.643.284 1.359 1.217 1.9l17.076 9.859a5.858 5.858 0 0 0 2.724.71v-8.3a5.857 5.857 0 0 1-2.724-.713z" transform="translate(-164.104 -372.675)"/>
                            </g>
                        </g>
                        <g id="Group_66" transform="translate(31.405 18.193)">
                            <path id="Path_431" d="M233.723 391.532l-17.807 10.281a5.674 5.674 0 0 1-5.086-.211l-17.076-9.859c-1.5-.866-1.664-2.187-.365-2.936l17.811-10.281a5.674 5.674 0 0 1 5.086.21l17.076 9.86c1.495.866 1.659 2.187.361 2.936z" class="cls-27" transform="translate(-192.512 -378.02)"/>
                            <g id="Group_65" transform="translate(.001 12.285)">
                                <path id="Path_432" fill="#d87600" d="M232.566 397.144V389.3a1.614 1.614 0 0 1-.851 1.039l-17.807 10.281a4.6 4.6 0 0 1-2.361.5v8.3a4.626 4.626 0 0 0 2.361-.5l17.807-10.281a1.432 1.432 0 0 0 .851-1.495z" transform="translate(-190.506 -389.115)"/>
                                <path id="Path_433" fill="#bc6200" d="M210.829 400.43l-17.076-9.859a2.273 2.273 0 0 1-1.216-1.438v7.841c-.132.643.283 1.359 1.216 1.9l17.076 9.86a5.864 5.864 0 0 0 2.725.71v-8.3a5.864 5.864 0 0 1-2.725-.714z" transform="translate(-192.513 -389.133)"/>
                            </g>
                        </g>
                        <g id="Group_68" transform="translate(63.466 36.644)">
                            <path id="Path_434" d="M262.725 408.223L244.918 418.5a5.674 5.674 0 0 1-5.086-.211l-17.076-9.859c-1.5-.866-1.664-2.188-.366-2.937l17.81-10.277a5.674 5.674 0 0 1 5.086.211l17.076 9.86c1.497.864 1.66 2.187.363 2.936z" class="cls-30" transform="translate(-221.514 -394.711)"/>
                            <g id="Group_67" transform="translate(0 12.285)">
                                <path id="Path_435" fill="#d6c100" d="M261.568 413.835v-7.841a1.614 1.614 0 0 1-.851 1.039l-17.807 10.281a4.608 4.608 0 0 1-2.362.5v8.3a4.608 4.608 0 0 0 2.362-.5l17.807-10.281a1.43 1.43 0 0 0 .851-1.498z" transform="translate(-219.507 -405.806)"/>
                                <path id="Path_436" fill="#938100" d="M239.831 417.121l-17.076-9.859a2.275 2.275 0 0 1-1.217-1.438v7.84c-.132.645.284 1.36 1.217 1.9l17.076 9.86a5.869 5.869 0 0 0 2.724.709v-8.3a5.857 5.857 0 0 1-2.724-.712z" transform="translate(-221.514 -405.824)"/>
                            </g>
                        </g>
                    </g>
                </g>
                <g id="Group_73" transform="translate(292.991 46.842)">
                    <g id="Group_72">
                        <ellipse id="Ellipse_43" cx="27.458" cy="15.853" class="cls-14" rx="27.458" ry="15.853"/>
                        <g id="Group_71" transform="translate(.007 15.938)">
                            <path id="Path_437" fill="url(#linear-gradient-15)" d="M433.015 340.371c-10.723 6.191-28.109 6.191-38.832 0-5.324-3.073-8-7.1-8.035-11.124v17.037c-.038 4.086 2.635 8.177 8.035 11.295 10.723 6.191 28.109 6.191 38.832 0 5.4-3.117 8.073-7.21 8.036-11.295v-17.037c-.038 4.028-2.712 8.053-8.036 11.124z" transform="translate(-386.149 -329.247)"/>
                        </g>
                    </g>
                </g>
                <g id="Group_78" transform="translate(221.836)">
                    <g id="Group_76">
                        <g id="Group_74">
                            <path id="Path_438" d="M363.919 307.923l-39.029-22.534c-4.613-2.663-4.034-7.314 1.291-10.389 5.326-3.074 13.382-3.408 17.995-.745l39.024 22.533c4.613 2.662 4.034 7.314-1.291 10.388-5.322 3.076-13.377 3.41-17.99.747z" class="cls-14" transform="translate(-321.776 -272.457)"/>
                        </g>
                        <g id="Group_75" transform="translate(.006 8.619)">
                            <path id="Path_439" fill="url(#linear-gradient-16)" d="M381.913 306.354c-5.326 3.075-13.382 3.409-17.995.746l-39.028-22.534c-2.008-1.159-3.03-2.7-3.107-4.314v11.6c.04 1.655 1.058 3.231 3.107 4.414l39.028 22.534c4.613 2.663 12.669 2.329 17.995-.745 3.007-1.737 4.5-3.975 4.4-6.076v-11.6c.047 2.071-1.44 4.266-4.4 5.975z" transform="translate(-321.782 -280.253)"/>
                        </g>
                    </g>
                    <g id="Group_77" transform="translate(11.002 4.489)">
                        <path id="Path_440" d="M340.475 281.568a8.009 8.009 0 0 1-7.246 0c-2-1.155-2-3.029 0-4.184a8.009 8.009 0 0 1 7.246 0c2.001 1.155 2.001 3.029 0 4.184z" class="cls-2" transform="translate(-331.729 -276.517)"/>
                        <path id="Path_441" d="M350.707 287.475a8.009 8.009 0 0 1-7.246 0c-2-1.155-2-3.029 0-4.184a8.009 8.009 0 0 1 7.246 0c2 1.155 2 3.029 0 4.184z" class="cls-2" transform="translate(-330.65 -275.894)"/>
                        <path id="Path_442" d="M360.938 293.382a8.009 8.009 0 0 1-7.246 0c-2-1.155-2-3.029 0-4.184a8.009 8.009 0 0 1 7.246 0c2 1.155 2 3.029 0 4.184z" class="cls-2" transform="translate(-329.571 -275.271)"/>
                        <path id="Path_443" d="M371.169 299.289a8.009 8.009 0 0 1-7.246 0c-2-1.155-2-3.029 0-4.184a8.009 8.009 0 0 1 7.246 0c2 1.155 2 3.029 0 4.184z" class="cls-2" transform="translate(-328.492 -274.648)"/>
                    </g>
                </g>
            </g>
            <g id="Group_87" transform="translate(113.27 125.139)">
                <g id="Group_81">
                    <path id="Path_444" d="M201.615 359.452v-86.3a6.125 6.125 0 0 1 3.063-5.305l103.736-59.892a6.126 6.126 0 0 1 9.189 5.3v86.3a6.123 6.123 0 0 1-3.063 5.3L210.8 364.757a6.125 6.125 0 0 1-9.185-5.305z" class="cls-14" transform="translate(-197.666 -204.997)"/>
                    <path id="Path_445" fill="url(#linear-gradient-17)" d="M207.554 363.336a4.089 4.089 0 0 1-4.08-4.08v-86.3a4.079 4.079 0 0 1 2.035-3.525l103.737-59.892a4.009 4.009 0 0 1 2.025-.555 4.088 4.088 0 0 1 4.08 4.079v86.3a4.083 4.083 0 0 1-2.036 3.525l-103.734 59.893a4.013 4.013 0 0 1-2.027.555z" transform="translate(-197.47 -204.801)"/>
                    <g id="Group_80">
                        <path id="Path_446" fill="url(#linear-gradient-18)" d="M201.992 359.654v-86.3a6.126 6.126 0 0 1 3.062-5.305l103.737-59.892a6.031 6.031 0 0 1 5.237-.413l-2.455-1.307a6.087 6.087 0 0 0-6.733-.4l-103.734 59.885a6.123 6.123 0 0 0-3.063 5.3v86.3a6.049 6.049 0 0 0 2.523 4.947v.007l.062.034a6.244 6.244 0 0 0 1.314.712l2.74 1.485a6.047 6.047 0 0 1-2.69-5.053z" transform="translate(-198.043 -205.2)"/>
                        <path id="Path_447" fill="url(#linear-gradient-19)" d="M205.081 350.054l.023.012z" transform="translate(-197.301 -189.923)"/>
                    </g>
                </g>
                <g id="Group_82" transform="translate(10.074 99.046)">
                    <path id="Path_448" d="M210.219 366.119l74.739 43.151a6.124 6.124 0 0 0 6.125 0l103.737-59.892a6.124 6.124 0 0 0 0-10.609l-74.74-43.152a6.13 6.13 0 0 0-6.125 0L210.219 355.51a6.124 6.124 0 0 0 0 10.609z" class="cls-14" transform="translate(-207.156 -294.797)"/>
                    <path id="Path_449" fill="url(#linear-gradient-20)" d="M394.82 344.7l-103.736 59.9a6.124 6.124 0 0 1-6.125 0l-74.739-43.151a6.068 6.068 0 0 1-3.063-5.305v5.6a6.067 6.067 0 0 0 3.063 5.3l74.739 43.156a6.13 6.13 0 0 0 6.125 0l103.736-59.892a6.051 6.051 0 0 0 3.047-5.03v-.057-5.604a6.052 6.052 0 0 1-3.047 5.083zm3.046-5.586v.065-.065z" transform="translate(-207.156 -290.123)"/>
                    <path id="Path_450" d="M354.6 331.266l-89.077 51.428c-3.474 2.008-9.546 1.755-13.559-.562l-26.815-15.482c-4.013-2.317-4.448-5.821-.973-7.828l89.077-51.428c3.474-2.006 9.546-1.755 13.559.562l26.815 15.482c4.013 2.317 4.448 5.821.973 7.828z" class="cls-39" transform="translate(-205.608 -293.612)"/>
                    <path id="Path_451" d="M224.175 360.055l89.077-51.428c3.474-2.006 9.546-1.754 13.559.562l26.815 15.482a6.078 6.078 0 0 1 3.253 3.829c.356-1.716-.755-3.619-3.253-5.062l-26.815-15.482c-4.013-2.317-10.084-2.568-13.559-.562l-89.077 51.428c-1.821 1.051-2.557 2.513-2.281 4a4.34 4.34 0 0 1 2.281-2.767z" class="cls-40" transform="translate(-205.607 -293.612)"/>
                    <path id="Path_452" d="M294.661 330.021l-4.724-2.727-4.725 2.727 4.724 2.727zm-9.286 5.361l-4.725-2.727-4.724 2.727 4.724 2.727zm18.572-10.722l-4.724-2.727-4.723 2.727 4.724 2.727zm26.976 2.854l9.838-5.68-4.725-2.727-9.836 5.68zm1.857-10.286l-4.724-2.728-4.725 2.728 4.725 2.727zm-19.547 2.072l-4.724-2.727-4.725 2.727 4.724 2.727zm-37.144 21.445l-4.725-2.727-4.724 2.727 4.724 2.727zm48.495-15.024l-81.407 47 4.724 2.727 81.408-47zM266.8 346.105l-4.725-2.728-4.724 2.728 4.724 2.727zm54.055-27.45L235.2 368.113l4.724 2.727 85.661-49.456zm23.157 5.06l-92.859 53.612 4.724 2.727 92.859-53.612zm-95.784 33.112l-4.725-2.727-4.724 2.727 4.724 2.727zm9.286-5.361l-4.725-2.727-4.724 2.727 4.724 2.728z" class="cls-40" transform="translate(-204.198 -292.719)"/>
                    <path id="Path_453" fill="#e4f2ff" d="M294.661 329.278l-4.724-2.727-4.725 2.727 4.724 2.722zm-9.286 5.362l-4.725-2.728-4.724 2.728 4.724 2.727zm18.572-10.723l-4.724-2.727-4.725 2.727 4.724 2.727zm26.976 2.854l9.838-5.679-4.725-2.727-9.836 5.679zm1.857-10.286l-4.724-2.727-4.725 2.727 4.725 2.727zm-19.547 2.071l-4.724-2.727-4.725 2.727 4.724 2.727zM276.089 340l-4.725-2.727-4.723 2.727 4.724 2.728zm48.495-15.023l-81.407 47 4.723 2.723 81.408-47zM266.8 345.361l-4.725-2.727-4.724 2.727 4.724 2.727zm54.055-27.449L235.2 367.369l4.724 2.728 85.661-49.457zm23.157 5.059l-92.859 53.613 4.724 2.727 92.862-53.611zm-95.784 33.113l-4.725-2.727-4.724 2.727 4.724 2.727zm9.286-5.361L252.793 348l-4.724 2.727 4.724 2.727z" transform="translate(-204.198 -292.798)"/>
                    <path id="Path_454" d="M299.223 321.6l4.368 2.522.356-.206-4.724-2.727-4.725 2.727.356.206zm9.286-5.361l4.368 2.522.356-.206-4.724-2.727-4.725 2.727.356.206zm-18.572 10.722l4.368 2.523.356-.206-4.724-2.727-4.725 2.727.356.206zm36.617-2.712l9.481-5.474 4.365 2.525.356-.206-4.725-2.727-9.836 5.679zm-45.9 8.073l4.369 2.522.356-.2-4.725-2.728-4.724 2.728.356.2zm47.406-18.154l4.368 2.522.356-.206-4.724-2.727-4.725 2.727.356.206zm15.96 8.8l-92.859 53.613.356.206 92.5-53.407 4.368 2.522.356-.2zm-18.79-2.126l.356-.206-4.724-2.727-85.662 49.46.355.206 85.306-49.251zm-81.719 32.922l4.369 2.523.356-.206-4.725-2.727-4.724 2.727.356.206zm85.445-25.858l.356-.206-4.724-2.727-81.407 47 .356.206 81.052-46.8zm-76.159 20.5l4.369 2.522.356-.206-4.729-2.722-4.724 2.727.356.206zm18.572-10.723l4.369 2.522.356-.206-4.725-2.727-4.728 2.728.356.206zm-9.286 5.362l4.369 2.522.356-.206-4.725-2.727-4.724 2.727.356.206z" class="cls-14" transform="translate(-204.198 -292.798)"/>
                    <path id="Path_455" d="M339.372 356.977L311.614 373a7.528 7.528 0 0 1-6.749-.28l-6.1-3.52c-1.99-1.149-2.208-2.9-.484-3.9l27.757-16.026a7.53 7.53 0 0 1 6.75.28l6.1 3.52c1.988 1.155 2.206 2.909.484 3.903z" class="cls-39" transform="translate(-197.668 -289.122)"/>
                    <path id="Path_456" d="M298.281 366.128l27.757-16.028a7.53 7.53 0 0 1 6.75.28l6.1 3.521a3.079 3.079 0 0 1 1.575 1.8c.246-.882-.285-1.879-1.575-2.624l-6.1-3.52a7.53 7.53 0 0 0-6.75-.28l-27.757 16.026a1.86 1.86 0 0 0-1.091 2.095 2.18 2.18 0 0 1 1.091-1.27z" class="cls-40" transform="translate(-197.666 -289.122)"/>
                </g>
                <g id="Group_86" transform="translate(20.699 28.116)">
                    <g id="Group_85">
                        <path id="Path_457" d="M299.255 236.9v-3.189c0-2.745-1.927-3.857-4.3-2.485l-73.879 42.654a9.513 9.513 0 0 0-4.3 7.455v3.189z" class="cls-42" transform="translate(-216.767 -230.633)"/>
                        <g id="Group_83" class="cls-43" transform="translate(4.141 37.147)">
                            <path id="Path_458" d="M223.978 271.834a3.831 3.831 0 0 1-1.732 3c-.957.553-1.732.1-1.732-1a3.83 3.83 0 0 1 1.732-3c.954-.552 1.732-.104 1.732 1z" class="cls-14" transform="translate(-220.513 -263.566)"/>
                            <path id="Path_459" d="M229.486 268.654a3.828 3.828 0 0 1-1.732 3c-.957.552-1.732.1-1.732-1a3.828 3.828 0 0 1 1.732-3c.957-.554 1.732-.104 1.732 1z" class="cls-14" transform="translate(-219.932 -263.901)"/>
                            <path id="Path_460" d="M234.995 265.474a3.828 3.828 0 0 1-1.733 3c-.956.553-1.732.1-1.732-1a3.831 3.831 0 0 1 1.732-3c.957-.553 1.733-.105 1.733 1z" class="cls-14" transform="translate(-219.351 -264.237)"/>
                        </g>
                        <path id="Path_461" d="M229.831 287.644l-13.064 7.542v-11.88l13.064-7.542z" class="cls-30" transform="translate(-216.767 -225.874)"/>
                        <path id="Path_462" d="M244.593 279.121l-13.064 7.542v-11.88l13.064-7.542z" class="cls-27" transform="translate(-215.21 -226.773)"/>
                        <path id="Path_463" d="M259.355 270.6l-13.064 7.542v-11.88l13.064-7.542z" class="cls-24" transform="translate(-213.653 -227.672)"/>
                        <path id="Path_464" d="M262.173 269.135l32.293-18.644v-2.5l-32.293 18.644z" class="cls-44" transform="translate(-211.978 -228.803)"/>
                        <path id="Path_465" d="M262.173 264.892l32.293-18.644v-2.5l-32.293 18.644z" class="cls-44" transform="translate(-211.978 -229.25)"/>
                        <path id="Path_466" d="M262.173 260.648L294.466 242v-2.5l-32.293 18.65z" class="cls-44" transform="translate(-211.978 -229.698)"/>
                        <path id="Path_467" d="M296.42 276.93l-76.82 44.351c-1.559.9-2.834-.064-2.834-2.142v-14.265a6.814 6.814 0 0 1 2.834-5.416l76.819-44.351c1.559-.9 2.834.064 2.834 2.142v14.265a6.814 6.814 0 0 1-2.833 5.416z" class="cls-42" transform="translate(-216.767 -228.088)"/>
                        <g id="Group_84" transform="translate(23.681 42.457)">
                            <path id="Path_468" d="M248.229 297.093l-10.041 5.8V290.5l10.041-5.8z" class="cls-30" transform="translate(-238.189 -267.388)"/>
                            <path id="Path_469" d="M259.575 290.356l-10.04 5.8v-10.439l10.04-5.8z" class="cls-24" transform="translate(-236.992 -267.893)"/>
                            <path id="Path_470" d="M270.921 284.262l-10.041 5.8v-15.225l10.041-5.8z" class="cls-27" transform="translate(-235.796 -269.04)"/>
                        </g>
                        <path id="Path_471" fill="url(#linear-gradient-24)" d="M286.327 272.425l2.7-1.557v-2.5l-2.7 1.557z" transform="translate(-209.431 -226.654)"/>
                        <path id="Path_472" fill="url(#linear-gradient-25)" d="M286.327 268.181l2.7-1.557v-2.5l-2.7 1.557z" transform="translate(-209.431 -227.101)"/>
                        <path id="Path_473" fill="url(#linear-gradient-26)" d="M286.327 263.938l2.7-1.557v-2.5l-2.7 1.557z" transform="translate(-209.431 -227.549)"/>
                        <path id="Path_474" fill="url(#linear-gradient-27)" d="M272.526 281.013l13.954-8.056v-2.5l-13.954 8.056z" transform="translate(-210.886 -226.433)"/>
                        <path id="Path_475" fill="url(#linear-gradient-28)" d="M272.526 276.769l13.954-8.056v-2.5l-13.954 8.056z" transform="translate(-210.886 -226.881)"/>
                        <path id="Path_476" fill="url(#linear-gradient-29)" d="M272.526 272.525l13.954-8.056v-2.5l-13.954 8.056z" transform="translate(-210.886 -227.328)"/>
                        <path id="Path_477" fill="url(#linear-gradient-30)" d="M222.165 298.484l-2.7 1.557v2.5l2.7-1.557z" transform="translate(-216.482 -223.478)"/>
                        <path id="Path_478" fill="url(#linear-gradient-31)" d="M222.165 302.727l-2.7 1.557v2.5l2.7-1.557z" transform="translate(-216.482 -223.03)"/>
                        <path id="Path_479" fill="url(#linear-gradient-32)" d="M222.165 306.971l-2.7 1.557v2.5l2.7-1.557z" transform="translate(-216.482 -222.583)"/>
                        <path id="Path_480" fill="url(#linear-gradient-33)" d="M237.039 290.516l-13.954 8.056v2.5l13.954-8.056z" transform="translate(-216.101 -224.318)"/>
                        <path id="Path_481" fill="url(#linear-gradient-34)" d="M237.039 294.76l-13.954 8.056v2.5l13.954-8.056z" transform="translate(-216.101 -223.87)"/>
                        <path id="Path_482" fill="url(#linear-gradient-35)" d="M237.039 299l-13.954 8.056v2.5l13.954-8.056z" transform="translate(-216.101 -223.423)"/>
                    </g>
                    <path id="Path_483" d="M293.369 287.878l-70.254 40.562c-1.458.842-2.65-.06-2.65-2a6.367 6.367 0 0 1 2.65-5.062l70.254-40.562c1.458-.842 2.65.06 2.65 2a6.367 6.367 0 0 1-2.65 5.062z" class="cls-42" transform="translate(-216.377 -225.375)"/>
                </g>
            </g>
            <g id="Group_93" transform="translate(260.386)">
                <g id="Group_89" transform="translate(90.794)">
                    <path id="Path_484" fill="url(#linear-gradient-36)" d="M421.434 136.638l-40.5 23.385c-1.254.723-2.279-.052-2.279-1.723v-38.29a5.481 5.481 0 0 1 2.279-4.356l40.5-23.384c1.254-.723 2.279.052 2.279 1.723v38.289a5.477 5.477 0 0 1-2.279 4.356z" transform="translate(-378.652 -92)"/>
                    <g id="Group_88" class="cls-43" transform="translate(3.527 10.99)">
                        <path id="Path_485" fill="url(#linear-gradient-37)" d="M419.851 129.1l-38.008 21.944v-2.851l38.008-21.944z" transform="translate(-381.842 -99.378)"/>
                        <ellipse id="Ellipse_44" cx="16.621" cy="9.596" fill="url(#linear-gradient-38)" rx="16.621" ry="9.596" transform="rotate(-60 26.123 12.33)"/>
                    </g>
                </g>
                <g id="Group_92" transform="translate(0 22.208)">
                    <path id="Path_486" fill="url(#linear-gradient-39)" d="M366.924 171.692l-66.653 38.482c-2.063 1.191-3.751-.085-3.751-2.836v-49.153c0-2.75 1.688-5.976 3.751-7.167l66.653-38.482c2.064-1.192 3.751.085 3.751 2.836v49.154c0 2.75-1.687 5.974-3.751 7.166z" transform="translate(-296.52 -112.089)"/>
                    <g id="Group_91" class="cls-43" transform="translate(5.803 11.81)">
                        <path id="Path_487" fill="url(#linear-gradient-40)" d="M364.318 158.947l-62.549 36.113v-4.691l62.549-36.113z" transform="translate(-301.769 -119.452)"/>
                        <path id="Path_488" fill="url(#linear-gradient-41)" d="M364.318 150.255l-62.549 36.113v-4.691l62.549-36.113z" transform="translate(-301.769 -120.368)"/>
                        <g id="Group_90" transform="translate(1.266)">
                            <path id="Path_489" fill="url(#linear-gradient-42)" d="M319.714 164.741l-16.8 9.7v-19.4l16.8-9.7z" transform="translate(-302.915 -120.391)"/>
                            <path id="Path_490" fill="url(#linear-gradient-43)" d="M339.261 153.455l-16.8 9.7v-19.4l16.8-9.7z" transform="translate(-300.853 -121.582)"/>
                            <path id="Path_491" fill="url(#linear-gradient-44)" d="M358.808 142.17l-16.8 9.7v-19.4l16.8-9.7z" transform="translate(-298.792 -122.772)"/>
                        </g>
                    </g>
                </g>
            </g>
            <g id="Group_99" transform="translate(-29.613 336.06)">
                <g id="Group_95" transform="translate(1.291 34.29)">
                    <path id="Path_492" d="M182.3 444.212l-35.773 20.653c-2.608 1.506-7.205 1.315-10.218-.423L102 444.635c-3.011-1.739-3.342-4.393-.734-5.9l35.773-20.653c2.608-1.506 7.207-1.316 10.218.423l34.3 19.807c3.019 1.739 3.348 4.394.743 5.9z" class="cls-7" transform="translate(-99.509 -417.067)"/>
                    <g id="Group_94" opacity="0.44" transform="translate(.001 24.679)">
                        <path id="Path_493" fill="url(#linear-gradient-45)" d="M179.975 504.84v-65.106a3.25 3.25 0 0 1-1.71 2.088l-35.773 20.653a9.255 9.255 0 0 1-4.745 1v66.029a9.264 9.264 0 0 0 4.745-1l35.773-20.653a2.874 2.874 0 0 0 1.71-3.011z" transform="translate(-95.477 -439.356)"/>
                        <path id="Path_494" fill="url(#linear-gradient-46)" d="M136.307 462.087L102 442.281a4.564 4.564 0 0 1-2.444-2.889V504.5c-.264 1.294.57 2.731 2.444 3.813l34.3 19.807a11.776 11.776 0 0 0 5.473 1.425v-66.033a11.776 11.776 0 0 1-5.466-1.425z" transform="translate(-99.51 -439.392)"/>
                    </g>
                </g>
                <g id="Group_98">
                    <ellipse id="Ellipse_45" cx="19.607" cy="33.961" fill="#007dc9" rx="19.607" ry="33.961" transform="rotate(-30 36.589 9.804)"/>
                    <ellipse id="Ellipse_46" cx="17.652" cy="30.575" class="cls-12" rx="17.652" ry="30.575" transform="rotate(-30 41.927 4.465)"/>
                    <g id="Group_96" transform="translate(17.043 .999)">
                        <path id="Path_495" d="M143.16 390.231c-6.663-3.847-12.691-4.192-17.041-1.644l-12.36 7.137c4.341-2.471 10.318-2.1 16.918 1.715 13.262 7.658 24.014 26.279 24.014 41.594 0 7.621-2.664 12.984-6.973 15.509l12.361-7.136c4.382-2.494 7.1-7.886 7.1-15.58-.005-15.316-10.756-33.938-24.019-41.595z" class="cls-13" transform="translate(-113.758 -386.952)"/>
                    </g>
                    <g id="Group_97" transform="translate(20.089 21.288)">
                        <path id="Path_496" d="M123.659 426.545a11.819 11.819 0 0 1 3.195.641c.117.039.221.074.317.109a15.2 15.2 0 0 1 2.016.881v-6.04l-6.477-3.74a41.6 41.6 0 0 0 .949 8.149z" class="cls-14" transform="translate(-115.859 -403.925)"/>
                        <path id="Path_497" d="M135.337 417.116c.132 0 .262 0 .391-.008.084 0 .172-.009.27-.017a7.336 7.336 0 0 0 2.2-.507 31.075 31.075 0 0 0-5.7-7.037 26.975 26.975 0 0 1 1.837 4.174c.379 1.089.714 2.227 1.002 3.395z" class="cls-14" transform="translate(-114.827 -404.858)"/>
                        <path id="Path_498" d="M127.891 406.229c-1.194.019-2.3.826-3.2 2.383a11.386 11.386 0 0 0-.84 1.835 28 28 0 0 0 3.062 2.974c.1.08.195.16.3.244a21.706 21.706 0 0 0 1.857 1.342V406.8c-.094-.053-.072-.04-.106-.057-.364-.19-.72-.36-1.073-.514z" class="cls-14" transform="translate(-115.739 -405.208)"/>
                        <path id="Path_499" d="M126.91 427.529a10.876 10.876 0 0 0-3.062-.562c.247.964.526 1.9.84 2.806a19.233 19.233 0 0 0 3.2 6.081c.354.255.712.5 1.068.722.035.022.014.011.108.067v-8.209a14.707 14.707 0 0 0-1.857-.8c-.101-.04-.201-.073-.297-.105z" class="cls-14" transform="translate(-115.739 -403.021)"/>
                        <path id="Path_500" d="M126.852 413.971a29.57 29.57 0 0 1-3.194-3.071 27.165 27.165 0 0 0-.95 7.094l6.478 3.74v-6.058a22.024 22.024 0 0 1-2.019-1.449l-.315-.256z" class="cls-14" transform="translate(-115.86 -404.715)"/>
                        <path id="Path_501" d="M123.528 410.491q-.26-.312-.516-.632l-.28-.356a36.8 36.8 0 0 1-2.274-3.3c-2.43 1.467-3.82 4.384-3.945 8.327l6 3.466a27.944 27.944 0 0 1 1.015-7.505z" class="cls-14" transform="translate(-116.513 -405.211)"/>
                        <path id="Path_502" d="M123.4 426.978c-.119.008-.238.017-.356.029q-.133.015-.265.033a7.135 7.135 0 0 0-2.043.6 30.943 30.943 0 0 0 5.413 6.534 26.958 26.958 0 0 1-1.842-4.174c-.339-.975-.643-1.985-.907-3.022z" class="cls-14" transform="translate(-116.068 -403.02)"/>
                        <path id="Path_503" d="M123.013 426.97c.17-.018.342-.041.515-.049a42.938 42.938 0 0 1-1.013-8.637l-6-3.463a28.7 28.7 0 0 0 3.929 12.844 7.614 7.614 0 0 1 2.289-.657c.095-.008.19-.03.28-.038z" class="cls-14" transform="translate(-116.513 -404.302)"/>
                        <path id="Path_504" d="M123.041 409.194q.176.222.355.439a12.08 12.08 0 0 1 .91-1.968 5.991 5.991 0 0 1 1.836-2.051 8.2 8.2 0 0 0-5.4.305 34.263 34.263 0 0 0 2.03 2.935l.269.34z" class="cls-14" transform="translate(-116.067 -405.306)"/>
                        <path id="Path_505" d="M135.337 433.367c.18.206.359.438.537.649.1.123.2.235.284.346a35.606 35.606 0 0 1 2.467 3.4c2.165-1.468 3.509-4.189 3.645-8.126l-6-3.465a28.277 28.277 0 0 1-.933 7.196z" class="cls-14" transform="translate(-114.528 -403.105)"/>
                        <path id="Path_506" d="M131.743 416.578a11.691 11.691 0 0 0 3.121.743c-.266-1.08-.575-2.13-.924-3.135a19.265 19.265 0 0 0-3.211-6.084c-.355-.257-.722-.5-1.078-.728-.042-.027-.146-.087-.146-.09v8.236a16.592 16.592 0 0 0 1.919.931c.107.043.225.092.319.127z" class="cls-14" transform="translate(-115.143 -405.097)"/>
                        <path id="Path_507" d="M135.73 434.031q-.2-.232-.392-.46a12.387 12.387 0 0 1-1 2.235 5.983 5.983 0 0 1-1.838 2.053 8.086 8.086 0 0 0 5.72-.429 34.354 34.354 0 0 0-2.22-3.071z" class="cls-14" transform="translate(-114.828 -402.325)"/>
                        <path id="Path_508" d="M136.158 417.611c-.09.007-.184.012-.284.017q-.267.012-.537.007a43.788 43.788 0 0 1 .934 8.312l6 3.465a28.434 28.434 0 0 0-3.661-12.372 7.856 7.856 0 0 1-2.452.571z" class="cls-14" transform="translate(-114.528 -404.068)"/>
                        <path id="Path_509" d="M135.153 417.717a12.672 12.672 0 0 1-3.272-.806c-.091-.034-.2-.08-.325-.129a19.135 19.135 0 0 1-2.052-1v6.034l6.534 3.772a41.658 41.658 0 0 0-.885-7.871z" class="cls-14" transform="translate(-115.143 -404.201)"/>
                        <path id="Path_510" d="M131.893 429.947a28.486 28.486 0 0 1 3.266 2.957 27.53 27.53 0 0 0 .879-6.812l-6.538-3.772v6.016a23.886 23.886 0 0 1 2.052 1.363c.128.093.248.175.341.248z" class="cls-14" transform="translate(-115.143 -403.511)"/>
                        <path id="Path_511" d="M134.858 433.193a26.79 26.79 0 0 0-3.123-2.862c-.1-.076-.2-.156-.311-.235a21.369 21.369 0 0 0-1.92-1.286v8.237s.1.056.144.077c.358.188.724.363 1.078.516 1.194-.019 2.3-.82 3.21-2.378a11.689 11.689 0 0 0 .922-2.069z" class="cls-14" transform="translate(-115.143 -402.827)"/>
                    </g>
                </g>
            </g>
        </g>
        <g id="Group_105" transform="translate(363.214 287.617)">
            <g id="Group_101" transform="translate(3.526 4.911)">
                <path id="Path_512" d="M378.234 289.74s-17.132 1.047-25.585-9.154l-2.44 3.563s9.461 14.273 30.279 15.774a12.8 12.8 0 0 0-2.254-10.183z" class="cls-70" transform="translate(-339.886 -272.639)"/>
                <path id="Path_513" d="M356.114 290.225a41.548 41.548 0 0 0 10.349 6.02l7.546-2.209-.206-4.961a40.732 40.732 0 0 1-12.41-2.595z" class="cls-70" transform="translate(-339.263 -272.017)"/>
                <path id="Path_514" d="M375.375 298.7l.933-9.836-7.839 8.3a44.253 44.253 0 0 0 6.906 1.536z" class="cls-70" transform="translate(-337.96 -271.765)"/>
                <path id="Path_515" d="M351.981 280.366l-2.555-3.83-8.482-3.138s-1.068 1.592 4.958 3.647l-1.046 1.667 1.028 3.02 3.388.971.555.9z" class="cls-71" transform="translate(-340.871 -273.397)"/>
                <path id="Path_516" d="M347.884 282.654l4.06-3.5 1.942 2.036-4 3.611z" class="cls-72" transform="translate(-340.131 -272.79)"/>
            </g>
            <g id="Group_104" transform="translate(0 3.573)">
                <path id="Path_517" d="M351.139 294.659l7.995 14.647-13.634.045-7.729-14.244a.73.73 0 0 1 .64-1.079l11.62-.028a1.259 1.259 0 0 1 1.108.659z" class="cls-14" transform="translate(-337.681 -269.886)"/>
                <path id="Path_518" d="M350.277 295.042l7.1 13.012-11.593.039-7.068-13.027z" class="cls-73" transform="translate(-337.571 -269.777)"/>
                <g id="Group_102" transform="translate(2.728 26.152)">
                    <path id="Line_7" d="M0 0L9.585 0" class="cls-74"/>
                    <path id="Line_8" d="M0 0L3.22 0" class="cls-74" transform="translate(.505 .902)"/>
                    <path id="Line_9" d="M0 0L1.323 0" class="cls-74" transform="translate(5.205 .902)"/>
                    <path id="Line_10" d="M0 0L1.324 0" class="cls-74" transform="translate(7.164 .902)"/>
                    <path id="Line_11" d="M0 0L9.585 0" class="cls-74" transform="translate(1.011 1.803)"/>
                    <path id="Line_12" d="M0 0L9.585 0" class="cls-74" transform="translate(1.517 2.705)"/>
                    <path id="Line_13" d="M0 0L3.855 0" class="cls-74" transform="translate(2.022 3.607)"/>
                    <path id="Line_14" d="M0 0L1.693 0" class="cls-74" transform="translate(2.528 4.508)"/>
                    <path id="Line_15" d="M0 0L1.693 0" class="cls-74" transform="translate(5.22 4.508)"/>
                    <path id="Line_16" d="M0 0L1.693 0" class="cls-74" transform="translate(7.826 4.508)"/>
                    <path id="Line_17" d="M0 0L1.693 0" class="cls-74" transform="translate(10.432 4.508)"/>
                    <path id="Line_18" d="M0 0L9.585 0" class="cls-74" transform="translate(3.033 5.41)"/>
                    <path id="Line_19" d="M0 0L4.72 0" class="cls-74" transform="translate(8.404 6.312)"/>
                    <path id="Line_20" d="M0 0L9.585 0" class="cls-74" transform="translate(4.044 7.213)"/>
                    <path id="Line_21" d="M0 0L9.585 0" class="cls-74" transform="translate(4.55 8.115)"/>
                    <path id="Line_22" d="M0 0L9.585 0" class="cls-74" transform="translate(5.056 9.017)"/>
                    <path id="Line_23" d="M0 0L9.585 0" class="cls-74" transform="translate(5.561 9.918)"/>
                    <path id="Line_24" d="M0 0L9.585 0" class="cls-74" transform="translate(6.067 10.82)"/>
                    <path id="Line_25" d="M0 0L2.397 0" class="cls-74" transform="translate(9.08 3.607)"/>
                </g>
                <path id="Path_519" fill="#d2eaff" d="M392.107 375.9c0 3.847-8.379 6.967-18.717 6.967s-18.714-3.12-18.714-6.967 8.378-6.967 18.714-6.967 18.717 3.116 18.717 6.967z" transform="translate(-335.889 -261.984)"/>
                <g id="Group_103" transform="translate(5.233)">
                    <path id="Path_520" d="M367.026 280.652l-.227 1.5 1.4.152.539-1.024z" class="cls-14" transform="translate(-339.843 -271.294)"/>
                    <path id="Path_521" d="M370.366 287.714v-2.247a6.787 6.787 0 0 1-3.481-.623v-2.056a2.732 2.732 0 0 0 1.454-.807l-1.454-.538.27-1.077-1.173-.677 1.873-3.2.161-1.884 1.184.807.538 3.445.628-1.345s1.114-.608 1.526.484a1.464 1.464 0 0 1-1.526 1.992l1.833 3.7 4.106.225v3.8z" class="cls-71" transform="translate(-339.93 -271.932)"/>
                    <path id="Path_522" d="M378.765 273.11c-4.866.322-6.734-.732-8.227-.923-.462 2.757.6 1.811-1.638 3.534l.533 3.757.626-1.711a1.062 1.062 0 0 1 1.585 1.113 1.609 1.609 0 0 1-1.585 1.362l1.833 3.7 2.756 1.508 1.35-1.282c7.884-4.915 2.768-11.062 2.768-11.062z" class="cls-73" transform="translate(-339.622 -272.187)"/>
                    <path id="Path_523" fill="#14afff" d="M377.189 286.54s-3.048-1.8-8.047 0l-1.164 2.224 9.56-.5z" transform="translate(-339.719 -270.758)"/>
                    <path id="Path_524" fill="url(#linear-gradient-47)" d="M368.214 288.16a12.717 12.717 0 0 1 9.094-1.015l.206 1.018-6.028.312-3.271-.315z" transform="translate(-339.694 -270.653)" style="mix-blend-mode:multiply;isolation:isolate" opacity="0.4"/>
                    <path id="Path_525" fill="#ff7588" d="M367.855 276.31l-.7 3.875-1.174-.677z" transform="translate(-339.93 -271.752)"/>
                    <path id="Path_526" d="M381.833 290.127s-5.294-5.525-16.254-1.073l-1.815 34.1h20.529s.986-19.515-2.46-33.027z" class="cls-70" transform="translate(-340.163 -270.591)"/>
                    <path id="Path_527" d="M349.158 307.946l-3.237-3.091-.064 1.579-3.442-2.944a7.735 7.735 0 0 0 4.875 6.553z" class="cls-71" transform="translate(-342.415 -268.886)"/>
                    <path id="Path_528" d="M348.145 307.2l-1.75-2-1.751-2a.975.975 0 0 0-.168 1.259l1.176 1.993" class="cls-71" transform="translate(-342.213 -268.915)"/>
                    <path id="Path_529" d="M367.268 288.888s-.537 10.48-6.446 17.285c-5.416 6.238-10.413 3.982-10.413 3.982l-2.658 3.042s4.6 3.721 14.734-.137c8.08-3.078 9.017-13.712 9.017-13.712s1.281-9.09-4.234-10.46z" class="cls-70" transform="translate(-341.852 -270.426)"/>
                    <path id="Rectangle_579" d="M0 0H2.266V4.039H0z" class="cls-72" transform="rotate(41.153 -47.504 28.242)"/>
                    <path id="Path_530" d="M370.617 374.578v.821a.609.609 0 0 1-.609.608h-12.281s1.71-3.154 7.659-3.355a16.578 16.578 0 0 1 5.231 1.926z" class="cls-79" transform="translate(-340.8 -261.592)"/>
                    <path id="Path_531" d="M386.98 373.5v1.219a.744.744 0 0 1-.745.744h-1.662a2.187 2.187 0 0 1-.772-.14l-6.773-2.554s1.815-2.1 5.846-.765z" class="cls-79" transform="translate(-338.764 -261.707)"/>
                    <path id="Path_532" fill="#11213f" d="M384.293 319.734l.986 32.505a50 50 0 0 1 1.553 5.008c1.936 7.348 1.624 21.968 1.624 21.968a3.081 3.081 0 0 1-4.182-.234l-6.291-28.328-3.964-19.078-2.619 18.416s1.615 4.251.9 11.56c-.445 4.56-2.321 18.608-2.321 18.608s-3.462-.248-4.927-1.864l-1.288-33.795v-24.766z" transform="translate(-340.163 -267.173)"/>
                    <path id="Path_533" fill="#020c1c" d="M373.04 331.054l1.615-2.939 6.251-3.447-3.755 3.9.8 25.816z" transform="translate(-339.185 -266.652)"/>
                    <path id="Path_534" fill="#001f5f" d="M363.764 319.734l20.6 2.343-.071-2.343z" transform="translate(-340.164 -267.173)"/>
                </g>
            </g>
            <path id="Path_535" d="M369.169 276.062a5.4 5.4 0 0 0-2.819.545 7.579 7.579 0 0 1 4.391-6.792l-1.572-.025s3.346-2.3 7.736.738l-.639-1.573a4.395 4.395 0 0 1 2.768 4.5 6.766 6.766 0 0 1-5.213 1.751z" class="cls-73" transform="translate(-334.657 -268.955)"/>
        </g>
    </g>
</svg>
