<svg width="50" height="50" viewBox="0 0 50 50" fill="none" xmlns="http://www.w3.org/2000/svg">
<circle cx="25" cy="25" r="25" fill="white"/>
<path d="M29.446 15.02C29.914 15.02 30.301 15.173 30.607 15.479C30.913 15.785 31.066 16.181 31.066 16.667V33.353C31.066 33.821 30.913 34.217 30.607 34.541C30.301 34.847 29.914 35 29.446 35C28.978 35 28.591 34.847 28.285 34.541C27.997 34.235 27.844 33.848 27.826 33.38C27.376 33.902 26.764 34.352 25.99 34.73C25.234 35.09 24.433 35.27 23.587 35.27C22.345 35.27 21.22 34.955 20.212 34.325C19.204 33.677 18.403 32.786 17.809 31.652C17.233 30.518 16.945 29.231 16.945 27.791C16.945 26.351 17.233 25.064 17.809 23.93C18.385 22.778 19.168 21.887 20.158 21.257C21.166 20.609 22.273 20.285 23.479 20.285C24.343 20.285 25.153 20.447 25.909 20.771C26.665 21.077 27.304 21.473 27.826 21.959V16.667C27.826 16.199 27.979 15.812 28.285 15.506C28.591 15.182 28.978 15.02 29.446 15.02ZM23.992 32.3C25.162 32.3 26.116 31.877 26.854 31.031C27.592 30.167 27.961 29.087 27.961 27.791C27.961 26.495 27.592 25.415 26.854 24.551C26.116 23.687 25.162 23.255 23.992 23.255C22.84 23.255 21.895 23.687 21.157 24.551C20.419 25.415 20.05 26.495 20.05 27.791C20.05 29.087 20.41 30.167 21.13 31.031C21.868 31.877 22.822 32.3 23.992 32.3Z" fill="#1B49DB"/>
</svg>
